<svg id="Layer_1" data-name="Layer 1" xmlns="http://www.w3.org/2000/svg" viewBox="0 0 393.84501 432.60658"><defs><style>.cls-1{fill:#d22630;}.cls-2{fill:#dca627;}.cls-3{fill:#cdcdcf;}</style></defs><rect class="cls-1" x="181.7032" y="251.46216" width="5.86877" height="3.41457"/><path class="cls-1" d="M199.62964,229.02364a26.48965,26.48965,0,0,0-2.92676-.15244c-.99082,0-1.96642.061-2.92676.15244v7.195h5.86878v-7.195Z"/><rect class="cls-1" x="181.7032" y="242.13309" width="5.86877" height="3.41457"/><path class="cls-1" d="M187.572,230.44128a27.06288,27.06288,0,0,0-5.86877,2.92676v2.8658H187.572Z"/><path class="cls-1" d="M175.49907,242.13309h-2.22556a25.6639,25.6639,0,0,0-1.73776,3.41456h3.96332Z"/><path class="cls-1" d="M169.4169,254.8767h6.09742v-3.41456h-5.70109a25.16071,25.16071,0,0,0-.38109,3.41456Z"/><rect class="cls-1" x="205.81852" y="242.13309" width="5.86878" height="3.41457"/><rect class="cls-1" x="205.81852" y="251.46216" width="5.86878" height="3.41457"/><path class="cls-1" d="M168.38033,152.05891a8.23426,8.23426,0,0,0-11.64607,0l-1.60058,1.60058-1.60058-1.60058a8.24678,8.24678,0,0,0-14.0698,5.823,8.13878,8.13878,0,0,0,2.42372,5.823l1.60058,1.60058-1.60058,1.60057a8.24042,8.24042,0,1,0,11.64608,11.66133l1.60058-1.60058,1.60058,1.60058a8.24041,8.24041,0,1,0,11.64607-11.66133l-1.60057-1.60057,1.60057-1.60058A8.23425,8.23425,0,0,0,168.38033,152.05891Z"/><path class="cls-1" d="M211.68727,233.368a27.06266,27.06266,0,0,0-5.86877-2.92676v5.79256h5.86877Z"/><rect class="cls-1" x="193.76086" y="242.13309" width="5.86878" height="3.41457"/><rect class="cls-1" x="193.76086" y="251.46216" width="5.86878" height="3.41457"/><path class="cls-1" d="M169.37117,293.946v2.04263l.85363-.8689c-.28963-.38109-.57925-.76217-.85363-1.17376Z"/><path class="cls-1" d="M224.01933,260.776h-6.12792v.09146l-2.10361,5.53342h-1.99691l-2.10362-5.53342V260.776H205.8185v.09146l-2.10362,5.53342H201.718l-2.10362-5.53342V260.776h-5.86877v.09146l-2.10361,5.53342h-1.9969l-2.10361-5.53342V260.776h-5.86876v.09146l-2.10361,5.53342h-1.9969l-2.10361-5.53342V260.776h-6.1279v30.33467a26.60393,26.60393,0,0,0,1.93592,2.89627l1.37193-1.4024,6.29558,6.17364-1.32619,1.35668a30.63307,30.63307,0,0,0,2.8353,1.79873l.76218-1.85972,8.1553,3.30785-.71645,1.753c1.15851.27437,2.36275.503,3.61273.67072v-1.82922h8.81078v1.82922a35.54127,35.54127,0,0,0,3.6737-.686l-.71644-1.89021,8.24677-3.10967.67072,1.78349a29.56192,29.56192,0,0,0,2.72858-1.73776l-1.29571-1.32618,6.2956-6.17365,1.35667,1.37191a26.58168,26.58168,0,0,0,1.95118-2.942V260.76072Zm-23.94764,25.975-3.36883,7.65227L193.334,286.751l-8.30773.89936,4.92367-6.75288-4.93891-6.73765,8.323.89936,3.36884-7.65227,3.36883,7.65227,8.30774-.91462-4.92366,6.75288,4.95415,6.73765-8.323-.89936Z"/><path class="cls-1" d="M224.01933,293.93071c-.28963.41158-.5945.80791-.89936,1.20423l.89936.89937v-2.1036Z"/><path class="cls-1" d="M217.89141,254.8767h6.09743a27.84824,27.84824,0,0,0-.38109-3.41456h-5.71634Z"/><path class="cls-1" d="M4.08527,3.99824,3.99381,247.55979c.18292,35.89858,12.49972,72.17825,34.66385,102.1623,31.31027,42.39233,64.43453,62.34614,126.62823,76.26352,17.95691,2.82007,37.43819,2.82007,61.29435,0,34.60287-7.48459,85.25723-23.47507,125.89653-75.69951,25.5482-33.91692,37.62111-70.94353,36.87417-113.16816V3.99824Zm88.38215,8.97845c1.50911-1.50911,4.45112-1.189,8.5059.92986a53.03177,53.03177,0,0,1,12.04241,9.26808l89.14432,85.88221L235.00992,76.207l-5.884-5.884,13.38384-13.38384-4.8322-4.83222L224.2937,65.49075,211.44337,52.65567l6.95106-6.9663,5.89925,5.89925,6.43278-6.43278-5.884-5.884,6.95106-6.96631,23.56655,23.58179,2.942-2.942L234.7355,29.36351l6.95106-6.95106,5.884,5.884,6.43278-6.43278-5.89925-5.89926,6.96632-6.95106L267.9055,21.86369,254.52166,35.24753l4.8322,4.83221L272.7377,26.69589l5.884,5.884,8.58213-8.58213a6.48885,6.48885,0,1,1,9.1766,9.17662l-84.87614,84.89137,10.25891,9.87783.88413-.88413h0l.53353-.53352a100.42219,100.42219,0,0,1,14.22225-11.84424c-1.60058-2.75908-1.7835-5.24378-.44206-6.60046,1.35668-1.35668,3.90235-1.14327,6.69192.503,2.42372-1.753,4.99989-2.0274,6.40229-.625,1.38717,1.38717,1.11278,3.97857-.625,6.38705,1.66154,2.78958,1.85972,5.32.48781,6.69192-1.35668,1.35668-3.84139,1.17375-6.58523-.42681a101.05115,101.05115,0,0,1-11.34121,13.704h.01523l-1.00608,1.03656c1.067.92986,2.07313,1.814,2.98775,2.66763,1.20423,1.09753,2.42372,2.25605,3.64321,3.4298.625.60974,1.26522,1.23472,1.875,1.85971.564.564,1.11277,1.11279,1.66154,1.67679,1.14327,1.17375,2.28654,2.39324,3.4298,3.628,1.15851,1.25,2.2713,2.51519,3.32309,3.74992,1.05181,1.21949,2.13409,2.51519,3.21639,3.85662,1.02131,1.26521,2.07312,2.62189,3.09444,4.00905,1.0823,1.46338,2.05789,2.86578,2.92676,4.17673.88413,1.34143,1.63107,2.53043,2.2713,3.64321.53353.89936,1.00608,1.78349,1.44813,2.63714a12.21458,12.21458,0,0,1,11.951,15.31978,3.96416,3.96416,0,0,1,.4878.39633,4.74268,4.74268,0,0,1-6.70715,6.70716.26718.26718,0,0,1-.061-.07622,11.24305,11.24305,0,0,1-4.28343.85363,12.31023,12.31023,0,0,1-12.17961-12.393c-.85364-.44206-1.73777-.92985-2.63713-1.44813-1.23473-.7317-2.45422-1.49387-3.628-2.28653-1.37191-.89937-2.77433-1.8902-4.17674-2.92676-1.34144-.99084-2.69812-2.0274-4.00906-3.0792-1.41764-1.14326-2.68286-2.19507-3.85662-3.23164-1.14327-.97558-2.36276-2.05787-3.73467-3.32309-1.25-1.128-2.46945-2.28654-3.64321-3.445-.564-.53352-1.11277-1.09754-1.6768-1.64631-.64022-.64022-1.26522-1.26521-1.85971-1.89019-1.11278-1.14327-2.2713-2.378-3.4298-3.628-.96036-1.03656-1.85972-2.07312-2.65239-2.98773l-.77741.77742h-.0305a102.327,102.327,0,0,1-13.82592,11.46315c1.61582,2.74385,1.7835,5.22854.44206,6.58522-1.35668,1.35667-3.90235,1.15851-6.69192-.503a7.16005,7.16005,0,0,1-4.0548,1.52435,3.19706,3.19706,0,0,1-2.33226-.88412c-1.38717-1.38717-1.128-3.97857.625-6.38706-1.66154-2.78957-1.85971-5.32-.48779-6.69192s3.82614-1.17375,6.58522.42682a101.619,101.619,0,0,1,11.85948-14.22224l.53354-.53353h0l.88413-.88413-9.87782-10.25891-2.78958,2.77432.10671.10671a3.14659,3.14659,0,0,1,0,4.43588,3.31557,3.31557,0,0,1-1.66154.86888,3.7504,3.7504,0,0,1-.60975,4.48161l-.07622.07622a3.74484,3.74484,0,0,1-4.4816.5945,3.04158,3.04158,0,0,1-.86888,1.66154,3.15,3.15,0,0,1-2.22556.91461,2.7449,2.7449,0,0,1-1.05181-.19816c-4.2682,11.31072-5.09134,23.597-2.439,36.55406l2.57617-2.57617.39633,1.11279a9.28469,9.28469,0,0,1-1.95117,9.89306,8.922,8.922,0,0,1-6.38705,2.57617,10.5072,10.5072,0,0,1-3.506-.625l-1.11278-.39634,3.15541-3.15542c-16.76791-5.41146-24.283-4.2377-38.41377.36585l2.40849,2.40848-1.11279.39634a10.2843,10.2843,0,0,1-3.52125.625,8.91466,8.91466,0,0,1-6.37181-2.57617,9.33121,9.33121,0,0,1-1.95118-9.89306l.39634-1.11279,2.6981,2.69811c4.6188-14.146,5.77731-21.6611.38109-38.41377l-3.15541,3.15541-.39634-1.11278a9.05307,9.05307,0,0,1,11.84424-11.84424l1.11279.39633-2.57617,2.57617c12.957,2.65237,25.22809,1.82922,36.50832-2.42372a3.12077,3.12077,0,0,1,.686-3.35358,3.19421,3.19421,0,0,1,1.67679-.8384,3.75039,3.75039,0,0,1,.5945-4.51209,3.79629,3.79629,0,0,1,4.54258-.67072,3.09377,3.09377,0,0,1,.86889-1.66154,3.219,3.219,0,0,1,4.43588,0l.28963.28963,2.95725-2.95726L102.6806,33.525c-7.43885-7.4541-13.55152-17.19473-10.21318-20.53307ZM353.3609,339.92052H40.02958v-8.262h4.78648V326.369h5.85352V232.362l-9.40527-12.74361V196.03658H51.59944V144.45239l-9.08516-9.48149V111.633h7.91141l29.6792-45.0752.65547-13.56676-9.16138.73169v-9.5882l9.14613.686-.7012-10.31989h9.573l-.7012,10.31989,9.14614-.686v9.5882l-9.17663-.73169.65548,13.521h0l.03049.061,26.26464,39.89239a2.83432,2.83432,0,0,1,.32011.42682h-.03048l3.10969,4.74074h7.91141V134.9709l-9.08516,9.48149v51.58419h10.33513v12.75885h9.20711V196.52437h17.68252v12.27106h15.80758V196.52437h17.68252v12.27106h15.79233V196.52437h17.68253v12.27106H238.0434V196.52437h17.68253v12.27106h9.25286V196.03658h10.33513V144.45239l-9.08518-9.48149V111.633h7.91142l29.6792-45.0752.67072-13.56676-9.16137.73169v-9.5882l9.14614.686-.71645-10.31989h9.58819l-.70122,10.31989,9.14614-.686v9.5882l-9.16137-.73169.65546,13.53628v.04573L339.50451,106.374a4.39273,4.39273,0,0,1,.39633.53352h-.0305l3.10968,4.74075h7.91141v23.33788l-9.06991,9.4815v51.5842h10.31989v23.58179l-9.40527,12.74361v94.007h5.79256v5.28951h4.80171v8.262Z"/><path class="cls-1" d="M217.89141,242.13309v3.41456H221.87a27.62681,27.62681,0,0,0-1.73776-3.41456h-2.24081Z"/><rect class="cls-1" x="172.35709" y="294.90773" width="2.8353" height="5.80779" transform="translate(-160.52847 213.36766) rotate(-45.56)"/><rect class="cls-1" x="193.79134" y="305.48531" width="5.8078" height="2.85054"/><path class="cls-1" d="M224.01933,297.61965l-5.50292,5.39621-1.73777-1.76826a32.79184,32.79184,0,0,1-3.26212,2.07312l.85364,2.2713-8.24677,3.10968-.82315-2.16458a34.95379,34.95379,0,0,1-4.22247.77741v2.51518H192.267v-2.51518a35.54317,35.54317,0,0,1-4.17673-.77741l-.91461,2.256-8.15531-3.30785.88413-2.14935a29.95418,29.95418,0,0,1-3.32309-2.11885l-1.692,1.73776-5.50292-5.39621v28.79508h54.6329V297.61965Z"/><polygon class="cls-1" points="182.054 302.04 180.987 304.662 186.368 306.857 187.435 304.22 182.054 302.04"/><polygon class="cls-1" points="212.434 304.723 211.428 302.056 206.001 304.098 207.008 306.766 212.434 304.723"/><polygon class="cls-1" points="222.678 296.827 220.681 294.8 216.535 298.87 218.532 300.897 222.678 296.827"/><path class="cls-2" d="M244.01887,150.19919,229.59845,164.6196c.92986.8384,1.7835,1.61581,2.60666,2.317l14.13079-14.13078C245.589,151.937,244.82678,151.06807,244.01887,150.19919Z"/><path class="cls-2" d="M250.25348,179.5278v-.01525c.061-.32011.13719-.65547.22864-.99083a9.08412,9.08412,0,0,1,.42682-1.17375l-1.875,1.875c.38109.21341.77741.44206,1.1585.64023.01524-.122.04573-.22866.061-.33536h0Z"/><path class="cls-2" d="M223.74493,159.0557c.38109.38109.76218.74693,1.14327,1.11278l14.67955-14.67954c-.36585-.38109-.74694-.76218-1.128-1.14327-.442-.44206-.88413-.88412-1.34144-1.32619L222.41873,157.699c.442.44207.86889.89937,1.32618,1.34143Z"/><path class="cls-2" d="M221.38218,156.632l14.64906-14.64906c-.8384-.80791-1.692-1.60058-2.53044-2.378l-14.49661,14.49662c.8079.86889,1.60058,1.70729,2.39325,2.53044Z"/><path class="cls-2" d="M271.92982,188.1709v.01525c-.07622.16768-.19817.35061-.30487.53352h0a2.48173,2.48173,0,0,1-.16768.25914l-.09145.15243s-.0305.04573-.04573.07622a13.48384,13.48384,0,0,1-1.23473,1.47863h0c-.18291.18293-.35059.33536-.53353.48779h0l-.03049.03049c-.10672.09145-.19818.16768-.28964.2439h0c-.19817.15243-.38108.30487-.57926.44206h-.01523a5.29822,5.29822,0,0,1-.60974.39634s-.03049.01525-.03049.03048a3.30711,3.30711,0,0,0,4.2682-.27438,3.23955,3.23955,0,0,0,.94509-2.30178,3.16857,3.16857,0,0,0-.91462-2.25606c-.09146.21341-.19817.41158-.30487.60975,0,.03048-.03049.04573-.03049.07622h-.03047Z"/><path class="cls-2" d="M260.48192,172.16517h-.10672a11.79387,11.79387,0,0,0-1.60058.2439c-.22864.061-.47254.12195-.70121.19816a.46041.46041,0,0,0-.13719.04573.07917.07917,0,0,0-.061.03048h0c-.22865.07622-.44205.16768-.67072.25914l-.07622.03048a6.2645,6.2645,0,0,0-.64023.32012l-.10672.04572a1.58723,1.58723,0,0,0-.15244.09146c-.01524,0-.0305.01525-.061.03048a4.887,4.887,0,0,0-.47254.28963.04725.04725,0,0,0-.0305.01525,6.35542,6.35542,0,0,0-.60973.45731l-.061.04573h0a2.24387,2.24387,0,0,0-.18292.15244c-.16768.15243-.35059.32011-.51827.48779-.13719.13718-.25914.27438-.38109.41157a.2102.2102,0,0,0-.04573.061h0a2.04889,2.04889,0,0,0-.19817.22865,9.3064,9.3064,0,0,0-1.14327,1.78349,13.11481,13.11481,0,0,0-.60973,1.55484,8.274,8.274,0,0,0-.19818.88413h0a9.2854,9.2854,0,0,0-.15244,1.26522v.15243a10.59786,10.59786,0,0,0,3.14017,7.95714,10.36819,10.36819,0,0,0,11.43266,2.36276l.27438-.13719c.22864-.1067.45731-.22865.70121-.36584a3.40472,3.40472,0,0,0,.45731-.30487c.061-.04573.13719-.07622.19818-.12195h0a6.2238,6.2238,0,0,0,.503-.38109,2.65087,2.65087,0,0,0,.2134-.18292c.01524,0,.0305-.03049.04573-.04573a6.06167,6.06167,0,0,0,.45732-.42682,10.87288,10.87288,0,0,0,1.067-1.26522l.25914-.39634a5.30972,5.30972,0,0,0,.27437-.47254v-.01525h0a8.45131,8.45131,0,0,0,.60973-1.41765l.04573-.15243a10.51009,10.51009,0,0,0-2.66762-10.579,10.66076,10.66076,0,0,0-8.10958-3.15541Z"/><path class="cls-2" d="M240.61956,146.556,225.9705,161.20505c.82315.79266,1.66155,1.60057,2.53044,2.39323l14.51187-14.51186C242.22014,148.23279,241.41224,147.37914,240.61956,146.556Z"/><polygon class="cls-2" points="296.868 52.076 306.121 51.345 305.389 66.04 311.792 66.04 311.091 51.345 320.328 52.076 320.328 45.735 311.06 46.421 311.776 35.979 305.405 35.979 306.136 46.421 296.868 45.735 296.868 52.076"/><polygon class="cls-2" points="73.108 52.076 82.346 51.345 81.629 66.04 88.032 66.04 87.315 51.345 96.568 52.076 96.568 45.735 87.3 46.421 88.016 35.979 81.644 35.979 82.361 46.421 73.108 45.735 73.108 52.076"/><path class="cls-2" d="M224.78151,127.09l6.15839,6.1584a98.28591,98.28591,0,0,0,11.53938-14.05457l.41158-.625.625.41157c2.2713,1.47863,4.46635,1.8902,5.33525,1.02132s.47255-3.03347-.97559-5.259l-.28963-.45731.33536-.42682c1.49386-1.85972,1.95117-3.93284,1.067-4.817-.8689-.86888-2.98775-.41157-4.817,1.067l-.42682.33536-.45731-.28963c-2.2713-1.46338-4.39016-1.84447-5.259-.97559-.86889.88413-.45731,3.0792,1.02132,5.3505l.41158.625-.625.41157a97.90732,97.90732,0,0,0-14.05456,11.53937Z"/><path class="cls-2" d="M217.98287,153.004,232.388,138.59886c-.76218-.7012-1.58532-1.41765-2.45421-2.17983L215.803,150.54981c.65546.76218,1.40241,1.60058,2.17982,2.46946Z"/><path class="cls-2" d="M233.34838,167.91221c.8384.71645,1.73776,1.46338,2.68286,2.24081l13.521-13.53628c-.74695-.92986-1.49387-1.814-2.24081-2.68287l-13.9631,13.9631Z"/><path class="cls-2" d="M195.02608,159.34533l-.41157.625-.625-.41157a7.9489,7.9489,0,0,0-3.99382-1.47863,1.87293,1.87293,0,0,0-1.35668.45731c-.86888.86889-.47254,3.03347.97559,5.259l.28963.45731-.33536.42682c-1.49387,1.85971-1.93593,3.93284-1.05181,4.817.86888.86888,2.98774.41157,4.817-1.067l.42682-.33536.45731.28963c2.24081,1.4329,4.40539,1.84447,5.259.97559.8689-.88413.45732-3.07919-1.02131-5.33525l-.41158-.625.625-.41157a97.97355,97.97355,0,0,0,14.05456-11.55462l-6.15839-6.1584a99.09716,99.09716,0,0,0-11.55462,14.05457Z"/><path class="cls-2" d="M214.111,144.36091c1.09754,0,3.41456-1.15851,5.945-3.68894,3.0792-3.07919,4.07-5.884,3.567-6.37181-.47254-.47254-3.15542.35061-6.37179,3.567-3.20116,3.21639-4.03954,5.89926-3.567,6.37181a.54609.54609,0,0,0,.41158.1067Z"/><path class="cls-2" d="M213.80613,150.4126l16.082-16.082-6.17365-6.17365-16.082,16.082,6.17365,6.18888Zm2.378-13.59725c3.003-3.003,6.87484-5.18281,8.49067-3.567s-.57926,5.48767-3.567,8.49066c-2.5,2.49994-5.24379,4.11575-6.99679,4.11575h0a2.06524,2.06524,0,0,1-1.47863-.54877c-1.61581-1.61581.57926-5.48767,3.567-8.49066h-.01526Z"/><path class="cls-2" d="M237.205,171.09811c.91462.7317,1.84448,1.4329,2.77434,2.1341l12.65215-12.65216q-1.07466-1.44051-2.14934-2.78957L237.205,171.08286Z"/><path class="cls-2" d="M256.71676,171.52493a5.88748,5.88748,0,0,1,.68595-.25914c.0305-.01525.12195-.04573.21341-.07622.25914-.07622.53353-.15243.79267-.22866.27438-.061.53354-.122.82314-.16768-.19817-.38109-.41158-.77742-.64022-1.15851l-1.89021,1.8902Z"/><path class="cls-2" d="M245.39078,177.01262c.76218.48779,1.52436.97559,2.28654,1.4329l10.15221-10.15221c-.42682-.71645-.89936-1.49387-1.4329-2.30178Z"/><path class="cls-2" d="M241.21406,174.13159c.97559.7012,1.95118,1.38717,2.91153,2.02739l11.4479-11.44791c-.625-.92986-1.29571-1.8902-2.0274-2.89628l-12.31679,12.3168Z"/><path class="cls-3" d="M324.1695,247.194h9.451V232.84977H309.35276V238.749a18.47213,18.47213,0,0,1,14.81674,8.44493Z"/><rect class="cls-3" x="255.32959" y="232.84977" width="19.10018" height="12.21008"/><polygon class="cls-3" points="273.698 231.356 267.707 223.231 267.707 231.356 273.698 231.356"/><rect class="cls-3" x="335.12962" y="232.84977" width="6.14315" height="14.34419"/><path class="cls-3" d="M290.06964,257.25469a18.52391,18.52391,0,0,1,2.08836-8.56687H275.93886v14.32894h14.13078Z"/><rect class="cls-3" x="275.93888" y="232.84977" width="5.96024" height="14.34419"/><path class="cls-3" d="M307.8589,238.749v-5.89924H283.393V247.194h9.64918A18.44989,18.44989,0,0,1,307.8589,238.749Z"/><path class="cls-3" d="M234.03434,326.35374v-70.41a37.465,37.465,0,0,0-1.32619-9.93881,37.42119,37.42119,0,0,0-15.6399-21.341l.41158-.64023h0l-.41158.625a37.17384,37.17384,0,0,0-20.36539-6.03646,37.38324,37.38324,0,0,0-36.00528,27.40791,37.46508,37.46508,0,0,0-1.32619,9.93881v70.41h8.52115v-70.1661a28.82558,28.82558,0,0,1,57.65115,0V326.369h8.52114Z"/><rect class="cls-3" x="127.63431" y="273.97688" width="23.24643" height="12.21008"/><rect class="cls-3" x="119.00645" y="273.97688" width="7.11874" height="12.21008"/><rect class="cls-3" x="127.63431" y="246.55373" width="23.24643" height="12.19485"/><rect class="cls-3" x="119.00645" y="246.55373" width="7.11874" height="12.19485"/><polygon class="cls-3" points="205.148 276.035 199.127 276.69 196.688 271.157 194.249 276.705 188.227 276.05 191.81 280.928 188.227 285.821 194.264 285.166 196.703 290.699 199.142 285.15 205.163 285.806 201.581 280.928 205.148 276.035"/><rect class="cls-3" x="119.00645" y="260.25768" width="19.49651" height="12.21008"/><rect class="cls-3" x="275.93888" y="296.18675" width="5.96024" height="14.32893"/><rect class="cls-3" x="327.14199" y="264.52588" width="6.47851" height="14.32893"/><rect class="cls-3" x="335.12962" y="264.52588" width="6.14315" height="14.32893"/><path class="cls-3" d="M341.25751,248.68782H325.03837a18.52391,18.52391,0,0,1,2.08836,8.56687v5.76207h14.11552V248.68782Z"/><rect class="cls-3" x="335.12962" y="296.18675" width="6.14315" height="14.32893"/><rect class="cls-3" x="327.14199" y="280.3487" width="14.11553" height="14.34419"/><path class="cls-3" d="M325.64813,326.35374V257.25469a17.0423,17.0423,0,1,0-34.08458,0v69.09905h2.95726V257.4681a14.08506,14.08506,0,0,1,28.17011,0v68.88564h2.95721Z"/><rect class="cls-3" x="275.93888" y="280.3487" width="14.13078" height="14.34419"/><rect class="cls-3" x="283.39298" y="264.52588" width="6.67669" height="14.32893"/><rect class="cls-3" x="275.93888" y="264.52588" width="5.96024" height="14.32893"/><rect class="cls-3" x="283.39298" y="296.18675" width="6.67669" height="14.32893"/><rect class="cls-3" x="275.93888" y="312.02481" width="14.13078" height="14.34419"/><rect class="cls-3" x="119.00645" y="287.68084" width="19.49651" height="12.19485"/><path class="cls-3" d="M308.60582,244.89217a12.58834,12.58834,0,0,0-12.57594,12.57593v68.88564h25.15187V257.4681A12.58834,12.58834,0,0,0,308.60582,244.89217Z"/><rect class="cls-3" x="235.54346" y="273.97688" width="5.92974" height="12.21008"/><path class="cls-3" d="M181.48979,191.66168a7.69121,7.69121,0,0,0,1.93593-7.14923l-9.08516,9.08515A7.72532,7.72532,0,0,0,181.48979,191.66168Z"/><path class="cls-3" d="M226.83937,231.47785v-.13718H241.4732V218.59705H218.22677v5.03038a38.3117,38.3117,0,0,1,8.6126,7.83519Z"/><path class="cls-3" d="M133.97563,136.6934a7.4257,7.4257,0,0,0-5.32,2.1341,7.69121,7.69121,0,0,0-1.93593,7.14923l2.25605-2.25605,5.2133-5.21329h0l1.61581-1.61581A8.399,8.399,0,0,0,133.97563,136.6934Z"/><rect class="cls-3" x="119.00645" y="301.38481" width="7.11874" height="12.21008"/><path class="cls-3" d="M134.67683,192.01227l-.16768-.16768-7.698-7.698a7.43695,7.43695,0,0,0,9.06991,9.08516l-1.21949-1.21949h0Z"/><path class="cls-3" d="M178.21244,128.01983a2.18885,2.18885,0,0,0-1.58534.65547,2.27939,2.27939,0,0,0-.07622,3.24687l11.768,11.768a2.29629,2.29629,0,0,0,3.24687-3.24687l-11.768-11.768A2.23954,2.23954,0,0,0,178.21244,128.01983Z"/><path class="cls-3" d="M174.2796,134.08676a1.63956,1.63956,0,0,0-.09146,2.21031l.1067.1067h0l9.573,9.57295c.04573.04573.09146.07623.13719.12195a1.669,1.669,0,0,0,2.17983-.12195,1.63144,1.63144,0,0,0,.12195-2.16458l-9.6949-9.71015a1.696,1.696,0,0,0-2.317,0Z"/><path class="cls-3" d="M216.73289,218.61229h-9.34431a38.583,38.583,0,0,1,9.34431,4.08526Z"/><path class="cls-3" d="M185.98665,218.61229H177.1149v3.82612A38.352,38.352,0,0,1,185.98665,218.61229Z"/><rect class="cls-3" x="235.54346" y="287.68084" width="18.29227" height="12.19485"/><rect class="cls-3" x="327.14199" y="296.18675" width="6.47851" height="14.32893"/><rect class="cls-3" x="235.54346" y="301.38481" width="5.92974" height="12.21008"/><path class="cls-3" d="M175.60578,223.353v-4.74075H152.35935V231.3559h14.28322a38.56611,38.56611,0,0,1,8.948-8.00286Z"/><path class="cls-3" d="M253.83573,232.84977H227.90644a38.53379,38.53379,0,0,1,6.08219,12.21008h19.84712V232.84977Z"/><polygon class="cls-3" points="265.04 210.274 254.278 210.274 254.278 198.018 239.583 198.018 239.583 210.274 220.788 210.274 220.788 198.018 206.093 198.018 206.093 210.274 187.298 210.274 187.298 198.018 172.603 198.018 172.603 210.274 153.807 210.274 153.807 198.018 139.113 198.018 139.113 210.274 128.412 210.274 128.412 217.118 265.04 217.118 265.04 210.274"/><rect class="cls-3" x="152.35935" y="273.97688" width="5.48768" height="12.21008"/><rect class="cls-3" x="139.99683" y="315.08875" width="17.86545" height="11.26499"/><rect class="cls-3" x="139.99683" y="287.68084" width="17.86545" height="12.19485"/><rect class="cls-3" x="152.35935" y="301.38481" width="5.48768" height="12.21008"/><rect class="cls-3" x="127.63431" y="301.38481" width="23.24643" height="12.21008"/><rect class="cls-3" x="119.00645" y="315.08875" width="19.49651" height="11.26499"/><path class="cls-3" d="M165.48406,232.84977H139.99683v12.21008h19.42029A38.49575,38.49575,0,0,1,165.48406,232.84977Z"/><path class="cls-3" d="M134.75305,140.07747l-4.35966,4.35966c5.884,17.89594,4.49685,25.95978-.38109,40.807l2.4847,2.4847.04573.03048,2.48469,2.4847.061.061c14.832-4.87793,22.89583-6.24986,40.807-.36584l4.35966-4.35966c-2.97249-13.7192-2.16459-26.72195,2.42372-38.67291l-9.25284-9.25284C161.49024,142.24206,148.48749,143.06521,134.75305,140.07747Zm34.69434,25.76162a9.73867,9.73867,0,0,1-13.76493,13.78018l-.53352-.53353-.53352.53353a9.74407,9.74407,0,1,1-13.78017-13.78018l.53352-.53352-.53352-.53353a9.73866,9.73866,0,1,1,13.76493-13.78016l.53352.53352.53352-.53352a9.73328,9.73328,0,0,1,13.76494,13.76493l-.53353.53352.53353.53352Z"/><rect class="cls-3" x="139.99683" y="260.25768" width="17.86545" height="12.21008"/><path class="cls-3" d="M184.27937,126.404a1.696,1.696,0,0,0-2.317,0,1.64722,1.64722,0,0,0,0,2.30178l9.573,9.57295a1.696,1.696,0,0,0,2.317,0,1.64722,1.64722,0,0,0,0-2.30178l-.10671-.1067h0l-.21341-.21341-.32011-.30487h0l-8.93272-8.93272Z"/><path class="cls-3" d="M157.86228,255.94375a38.73309,38.73309,0,0,1,1.15851-9.39H152.3746v12.19484h5.48768Z"/><path class="cls-3" d="M298.51459,83.3562a4.40145,4.40145,0,0,1,1.189-.18292,5.63741,5.63741,0,0,1,2.74385.686l1.60058-8.6431a1.99,1.99,0,0,0-2.11886-.061Z"/><path class="cls-3" d="M71.78191,153.90338a19.93537,19.93537,0,0,0-6.92057,15.13685,19.54706,19.54706,0,0,0,.42681,4.11576h0a19.86754,19.86754,0,0,0,4.89318,9.451,20.06942,20.06942,0,0,0,14.67955,6.43278,20.03943,20.03943,0,0,0,19.57272-15.86855,20.60769,20.60769,0,0,0,.42682-4.11575,19.67259,19.67259,0,0,0-.77742-5.50293,19.988,19.988,0,0,0-32.28585-9.63391Zm30.01456,15.13685a16.94321,16.94321,0,1,1-16.95083-16.95084A16.96012,16.96012,0,0,1,101.79647,169.04023Z"/><path class="cls-3" d="M109.86032,152.59243V144.8792h-24.283v2.6981a21.39746,21.39746,0,0,1,13.06373,5.01513Z"/><path class="cls-3" d="M59.6328,152.59243H71.035A21.36224,21.36224,0,0,1,84.0987,147.5773v-2.6981H59.6328Z"/><path class="cls-3" d="M69.40392,169.04023a15.44935,15.44935,0,1,0,15.44173-15.457A15.46057,15.46057,0,0,0,69.40392,169.04023ZM90.44,162.516v.94511h.9451a5.59438,5.59438,0,1,1,0,11.18876H90.44v.94511a5.58677,5.58677,0,0,1-11.17353,0v-.94511h-.9451a5.59438,5.59438,0,1,1,0-11.18876h.9451V162.516a5.58677,5.58677,0,1,1,11.17353,0Z"/><rect class="cls-3" x="53.76403" y="204.57296" width="4.35966" height="4.29869"/><rect class="cls-3" x="53.10855" y="144.8792" width="5.01513" height="7.71324"/><path class="cls-3" d="M53.10855,162.577H64.3583a21.31327,21.31327,0,0,1,5.06086-8.47542H53.10855Z"/><rect class="cls-3" x="59.6328" y="204.57296" width="5.68585" height="4.29869"/><path class="cls-3" d="M84.08346,190.51841a21.53888,21.53888,0,0,1-14.6643-6.52424v.04573H59.6328v8.49066H84.09871v-2.01215Z"/><path class="cls-3" d="M109.86032,184.0399H100.1959a21.40442,21.40442,0,0,1-14.61858,6.46326v2.01215h24.283v-8.49066Z"/><rect class="cls-3" x="53.10855" y="184.0399" width="5.01513" height="8.49066"/><path class="cls-3" d="M53.10855,182.546H68.12346a21.4531,21.4531,0,0,1-4.17674-8.47542H53.10855Z"/><path class="cls-3" d="M59.6328,164.07083v8.49066h4.009a20.84232,20.84232,0,0,1-.28962-3.52126,21.62281,21.62281,0,0,1,.59449-4.9694Z"/><rect class="cls-3" x="53.10855" y="164.07083" width="5.01513" height="8.49066"/><path class="cls-3" d="M210.43732,117.0597l84.90661-84.90661a4.996,4.996,0,0,0-7.073-7.05777l-8.90223,8.90224h0l-13.59725,13.6125h0l-.47255.47255-6.70715,6.70716-2.71335,2.71336h0l-4.31393,4.31393-1.57009,1.58533h0L236.39709,76.99964h0l-33.1395,33.13949,7.195,6.93582Z"/><rect class="cls-3" x="111.36943" y="184.0399" width="5.21329" height="8.49066"/><polygon class="cls-3" points="250.223 15.995 256.122 21.894 247.555 30.446 241.671 24.562 236.839 29.379 259.339 51.893 264.72 46.528 264.72 46.528 277.57 33.677 272.738 28.845 259.339 42.229 252.388 35.278 265.771 21.894 255.055 11.163 250.223 15.995"/><polygon class="cls-3" points="268.79 135.398 276.442 143.385 340.77 143.385 348.407 135.398 268.79 135.398"/><polygon class="cls-3" points="248.927 62.32 248.927 62.32 254.278 56.954 231.778 34.44 226.946 39.272 232.83 45.156 224.294 53.723 218.379 47.823 213.562 52.656 224.294 63.387 237.678 50.003 244.629 56.954 231.23 70.338 236.077 75.17 248.927 62.32"/><polygon class="cls-3" points="50.685 327.863 46.325 327.863 46.325 331.643 347.065 331.643 347.065 327.863 342.767 327.863 342.02 327.863 275.192 327.863 274.43 327.863 119.006 327.863 118.26 327.863 51.432 327.863 50.685 327.863"/><polygon class="cls-3" points="42.773 197.515 42.773 218.612 126.903 218.612 126.903 197.515 117.421 197.515 117.421 210.366 102.864 210.366 102.864 197.515 92.117 197.515 92.117 210.366 77.574 210.366 77.574 197.515 66.813 197.515 66.813 210.366 52.27 210.366 52.27 197.515 42.773 197.515"/><rect class="cls-3" x="327.14199" y="312.02481" width="14.11553" height="14.34419"/><rect class="cls-3" x="85.59258" y="204.57296" width="5.03037" height="4.29869"/><polygon class="cls-3" points="90.623 196.021 96.202 196.021 96.202 194.024 72.651 194.024 72.651 196.021 79.068 196.021 79.068 203.064 90.623 203.064 90.623 196.021"/><rect class="cls-3" x="79.06833" y="204.57296" width="5.01513" height="4.29869"/><rect class="cls-3" x="111.55235" y="204.57296" width="4.35966" height="4.29869"/><polygon class="cls-3" points="115.912 196.021 116.583 196.021 116.583 194.024 97.711 194.024 97.711 196.021 104.373 196.021 104.373 203.064 115.912 203.064 115.912 196.021"/><polygon class="cls-3" points="65.319 196.021 71.142 196.021 71.142 194.024 53.109 194.024 53.109 196.021 53.764 196.021 53.764 203.064 65.319 203.064 65.319 196.021"/><rect class="cls-3" x="104.37264" y="204.57296" width="5.68585" height="4.29869"/><path class="cls-3" d="M308.65154,93.09683c-4.05479,0-5.76206,1.4024-6.78337,2.63713-.04573.04573-.061.07622-.10672.122l-1.78349,9.64916c1.89021-1.14326,4.49684-1.60057,8.67358-1.60057,3.85662,0,6.58523.27438,8.58214,1.46338L315.435,95.70347c-1.37191-1.82923-3.38408-2.60665-6.78338-2.60665Z"/><path class="cls-3" d="M308.65154,82.92938c-2.89626,0-4.11575,1.09754-4.89319,2.21032L302.234,93.32549a10.47106,10.47106,0,0,1,6.41754-1.73777,10.73445,10.73445,0,0,1,6.32607,1.58533l-1.52435-8.24676c-1.02132-1.41765-2.45422-2.01215-4.78648-2.01215Z"/><path class="cls-3" d="M317.59953,84.68239a4.24342,4.24342,0,0,0-2.53044.8079l1.40241,7.576a4.51375,4.51375,0,0,1,3.52126-1.20424,6.84141,6.84141,0,0,1,2.45421.42682l-2.95725-7.08826a4.76432,4.76432,0,0,0-1.89021-.51828Z"/><path class="cls-3" d="M290.29831,119.52916a6.87143,6.87143,0,0,0-3.06394-.564,5.26248,5.26248,0,0,0-4.16149,1.47863l-1.067,2.54567h8.2925v-3.46029Z"/><path class="cls-3" d="M290.29831,111.61775h7.012l.77741-4.192a5.53923,5.53923,0,0,0-4.52734-1.9207h-.04573c-2.14934,0-4.31393.88413-5.0761,2.01215l-4.34443,10.44184a8.47029,8.47029,0,0,1,3.14017-.51828,9.0121,9.0121,0,0,1,3.064.45731v-6.28035Z"/><path class="cls-3" d="M300.3743,95.048c-.564-1.1585-1.20423-1.692-3.0792-1.692a3.88671,3.88671,0,0,0-3.88711,2.22556h0l-3.85662,9.26808a9.9889,9.9889,0,0,1,3.94808-.85363h.061a7.55025,7.55025,0,0,1,4.8627,1.60057l1.95117-10.56378Z"/><path class="cls-3" d="M299.70358,84.68239a4.8447,4.8447,0,0,0-1.98166.564l-2.942,7.073a6.5177,6.5177,0,0,1,2.53044-.45731,4.52831,4.52831,0,0,1,3.46029,1.14327l1.40241-7.54557a4.21732,4.21732,0,0,0-2.45422-.76217Z"/><path class="cls-3" d="M308.65154,74.57591a6.85606,6.85606,0,0,0-3.01821.79266v.04573l-.09146.03049-1.32618,7.134a7.68707,7.68707,0,0,1,4.43588-1.17375,8.0542,8.0542,0,0,1,4.32916,1.02131l-1.32618-7.11874a7.20427,7.20427,0,0,0-3.01822-.74694Z"/><path class="cls-3" d="M288.25568,93.00537a8.63243,8.63243,0,0,1,.91462-.061,5.36257,5.36257,0,0,1,3.33835.9451l3.68893-8.85651a4.37869,4.37869,0,0,0-1.52435-.25914,3.71255,3.71255,0,0,0-1.1585.22866l-5.259,7.98763Z"/><path class="cls-3" d="M294.658,83.28a5.863,5.863,0,0,1,2.10362.36585l4.07-9.77112L294.64274,83.28h0Z"/><path class="cls-3" d="M267.2653,220.10615l8.29249,11.23449H341.6386l8.2925-11.23449H267.2653Zm9.90831,9.25285-6.0212-7.74373H275.07l5.41147,7.74373h-3.30787Zm7.36264,0-4.66453-7.74373h3.91761l4.05479,7.74373h-3.30787Zm7.36264,0-3.30785-7.74373h3.91761l2.69811,7.74373h-3.30787Zm7.36264,0-1.96641-7.74373h3.90235l1.35668,7.74373h-3.29262Zm10.579,0h-2.4847l-.60974-7.74373h3.70418Zm7.36264,0h-3.30784l1.35667-7.74373h3.91761l-1.96641,7.74373Zm7.36265,0H321.258l2.69811-7.74373h3.91761l-3.30785,7.74373Zm4.05479,0,4.05479-7.74373H336.593l-4.66453,7.74373h-3.30787Zm10.68572,0h-3.30785l5.41147-7.74373h3.91761l-6.0212,7.74373Z"/><path class="cls-3" d="M304.35287,73.66129l1.14327-6.11267h-.38109l-2.439,5.85353A3.13345,3.13345,0,0,1,304.35287,73.66129Z"/><rect class="cls-3" x="242.96706" y="273.97688" width="23.24643" height="12.21008"/><path class="cls-3" d="M311.33443,73.58508l-1.128-6.0517h-3.20115l-1.128,6.08219a7.47943,7.47943,0,0,1,2.77433-.54877,7.85955,7.85955,0,0,1,2.68286.503Z"/><path class="cls-3" d="M109.86032,172.56149v-8.49066h-4.11576a21.72336,21.72336,0,0,1,.5945,4.9694,22.54916,22.54916,0,0,1-.28963,3.52126h3.81089Z"/><rect class="cls-3" x="111.36943" y="144.8792" width="5.21329" height="7.71324"/><path class="cls-3" d="M116.58273,154.08631H100.28737a21.10575,21.10575,0,0,1,5.04561,8.47541h11.24974Z"/><polygon class="cls-3" points="124.647 135.398 45.029 135.398 52.682 143.385 117.01 143.385 124.647 135.398"/><rect class="cls-3" x="111.36943" y="164.07083" width="5.21329" height="8.49066"/><path class="cls-3" d="M116.58273,174.05536H105.74456a21.08559,21.08559,0,0,1-4.192,8.47542h15.03015Z"/><path class="cls-3" d="M323.42256,105.52033a5.52826,5.52826,0,0,0-4.2682,1.96642l.76217,4.131h6.99679v6.31084a9.054,9.054,0,0,1,3.15543-.47255,8.78869,8.78869,0,0,1,3.06394.48779l-4.40538-10.56378c-.92986-1.14327-3.17067-1.95118-5.30475-1.84447Z"/><path class="cls-3" d="M319.97752,93.356c-1.90544,0-2.53044.53353-3.10968,1.76826l.0305.04572-.04573.03049,1.93594,10.44184a7.21557,7.21557,0,0,1,4.55783-1.63106,10.15522,10.15522,0,0,1,4.29869.80791l-4.07-9.77112a3.87538,3.87538,0,0,0-3.61272-1.70728Z"/><path class="cls-3" d="M326.91334,119.55965v3.41455h8.30774l-1.09754-2.62189a5.41023,5.41023,0,0,0-4.07-1.41765,6.75115,6.75115,0,0,0-3.15542.60974Z"/><path class="cls-3" d="M286.91424,107.30383a5.6088,5.6088,0,0,0-4.32916-1.49388,5.01451,5.01451,0,0,0-3.94808,1.875h-.03049l-2.60666,3.93284H279.704v6.57a3.7217,3.7217,0,0,1,2.39325.67072Z"/><path class="cls-3" d="M279.68879,122.98945h.68595l1.11277-2.68287a2.349,2.349,0,0,0-1.79872-.625v3.30786Z"/><path class="cls-3" d="M303.30106,118.55357v4.43588h10.59427V118.3859a17.59514,17.59514,0,0,0-5.259-.5945A15.16987,15.16987,0,0,0,303.30106,118.55357Z"/><path class="cls-3" d="M287.50874,105.84044l4.35966-10.47232a3.353,3.353,0,0,0-2.71335-.92986,4.06255,4.06255,0,0,0-2.24081.564l-6.35656,9.66443a8.70869,8.70869,0,0,1,1.93594-.35061A7.30314,7.30314,0,0,1,287.50874,105.84044Z"/><path class="cls-3" d="M313.91057,111.61775h4.48161l-.73169-3.99381c-1.52435-1.66154-3.84138-2.22556-9.00895-2.22556s-7.39313.625-9.08517,2.30178l-.73168,3.91759H303.301V116.953a17.77076,17.77076,0,0,1,5.33525-.67072,20.66354,20.66354,0,0,1,5.259.53352v-5.19806Z"/><path class="cls-3" d="M78.00128,95.84067l-1.78349,9.64917c1.8902-1.14327,4.49685-1.60058,8.65834-1.60058,3.85662,0,6.60046.27438,8.59736,1.46338l-1.79874-9.66442c-1.37192-1.82922-3.39931-2.60664-6.79862-2.60664-4.05479,0-5.74682,1.4024-6.76814,2.63713a.6363.6363,0,0,0-.09146.12195Z"/><path class="cls-3" d="M333.6205,172.56149v-8.49066h-4.11576a21.82532,21.82532,0,0,1,.5945,4.9694,22.55037,22.55037,0,0,1-.28963,3.52126h3.81089Z"/><polygon class="cls-3" points="339.687 196.021 340.343 196.021 340.343 194.024 321.471 194.024 321.471 196.021 328.118 196.021 328.118 203.064 339.687 203.064 339.687 196.021"/><path class="cls-3" d="M78.47383,93.32549a10.42272,10.42272,0,0,1,6.4023-1.73777,10.73454,10.73454,0,0,1,6.32608,1.58533l-1.52436-8.24676c-1.02131-1.40241-2.45421-2.01215-4.80172-2.01215-2.881,0-4.10052,1.09754-4.89318,2.21032Z"/><path class="cls-3" d="M89.41871,75.26187l1.60057,8.62785a5.74491,5.74491,0,0,1,2.82006-.71645,5.43936,5.43936,0,0,1,1.128.15243l-3.4298-8.21627a1.9373,1.9373,0,0,0-2.11885.13719Z"/><path class="cls-3" d="M84.87613,73.082a8.02786,8.02786,0,0,1,2.69811.503l-1.128-6.0517H83.22982l-1.128,6.09743a7.33243,7.33243,0,0,1,2.75908-.54877Z"/><path class="cls-3" d="M80.45549,82.594a7.66606,7.66606,0,0,1,4.42064-1.15851,8.184,8.184,0,0,1,4.34441,1.02132l-1.32619-7.11875a7.378,7.378,0,0,0-3.01822-.74693,6.90714,6.90714,0,0,0-3.09444.85364Z"/><path class="cls-3" d="M87.98582,67.54863l1.14326,6.14315a3.35014,3.35014,0,0,1,1.692-.28962l-2.439-5.85353h-.39633Z"/><rect class="cls-3" x="335.12962" y="164.07083" width="5.21329" height="8.49066"/><path class="cls-3" d="M293.14885,169.04023a15.44174,15.44174,0,1,0,15.44173-15.457A15.47039,15.47039,0,0,0,293.14885,169.04023ZM314.185,162.516v.94511h.9451a5.5944,5.5944,0,0,1,0,11.18876h-.9451v.94511a5.58677,5.58677,0,0,1-11.17353,0v-.94511h-.94509a5.59438,5.59438,0,0,1,0-11.18876h.94509V162.516a5.58677,5.58677,0,1,1,11.17353,0Z"/><path class="cls-3" d="M295.5421,153.90338l-.503-.57925h0l.4878.57925a19.93546,19.93546,0,0,0-6.92058,15.13685,19.54639,19.54639,0,0,0,.42681,4.11576,20.00941,20.00941,0,0,0,39.14547,0,20.60926,20.60926,0,0,0,.42682-4.11576,19.99407,19.99407,0,0,0-33.06328-15.13686Zm29.99931,15.13685a16.94321,16.94321,0,1,1-16.93559-16.95084A16.95689,16.95689,0,0,1,325.54141,169.04023Z"/><polygon class="cls-3" points="96.339 84.637 96.355 84.637 96.355 84.621 96.339 84.637"/><path class="cls-3" d="M309.35276,147.5773a21.39751,21.39751,0,0,1,13.06374,5.01513h11.204V144.8792H309.35278v2.6981Z"/><path class="cls-3" d="M96.23258,91.8621a6.78133,6.78133,0,0,1,2.45421.42682l-2.95725-7.08826a4.84874,4.84874,0,0,0-1.90545-.53352,4.19787,4.19787,0,0,0-2.51518.80791l1.4024,7.57605a4.48683,4.48683,0,0,1,3.506-1.20425Z"/><path class="cls-3" d="M110.37861,120.35231a5.40386,5.40386,0,0,0-4.07-1.40241,6.751,6.751,0,0,0-3.15542.60975v3.41455h8.30774l-1.09754-2.62189Z"/><polygon class="cls-3" points="314.368 196.021 319.962 196.021 319.962 194.024 296.411 194.024 296.411 196.021 302.829 196.021 302.829 203.064 314.368 203.064 314.368 196.021"/><rect class="cls-3" x="309.35276" y="204.57296" width="5.01512" height="4.29869"/><path class="cls-3" d="M307.8589,190.51841a21.53952,21.53952,0,0,1-14.61857-6.46326h-9.83209v8.49066h24.46592v-2.01215Z"/><path class="cls-3" d="M73.977,85.23115l-2.942,7.073a6.51784,6.51784,0,0,1,2.53043-.4573,4.52827,4.52827,0,0,1,3.46028,1.14327l1.40241-7.54557a4.23026,4.23026,0,0,0-2.46946-.76217,5.23834,5.23834,0,0,0-1.96642.54876Z"/><rect class="cls-3" x="335.31254" y="204.57296" width="4.37489" height="4.29869"/><rect class="cls-3" x="328.11757" y="204.57296" width="5.68584" height="4.29869"/><rect class="cls-3" x="302.82852" y="204.57296" width="5.03038" height="4.29869"/><path class="cls-3" d="M103.15315,111.61775v6.31084a9.05385,9.05385,0,0,1,3.15542-.47255,8.49157,8.49157,0,0,1,3.06395.503l-4.40538-10.579c-.94511-1.15852-3.1859-1.95118-5.32-1.85972a5.47959,5.47959,0,0,0-4.25295,1.96642l.76217,4.131Z"/><path class="cls-3" d="M99.58616,104.02646a9.99576,9.99576,0,0,1,4.31393.8079l-3.97857-9.54247A3.848,3.848,0,0,0,96.21734,93.356c-1.90545,0-2.53043.53352-3.10969,1.76825a.93344.93344,0,0,0,.061.09147l-.061.03049,1.93593,10.41135A7.29342,7.29342,0,0,1,99.58616,104.02646Z"/><rect class="cls-3" x="335.12962" y="184.0399" width="5.21329" height="8.49066"/><path class="cls-3" d="M333.6205,184.0399h-9.66441a21.183,21.183,0,0,1-14.60333,6.448v2.04263H333.6205Z"/><path class="cls-3" d="M283.393,152.59243h11.40218a21.36222,21.36222,0,0,1,13.06371-5.01513v-2.6981H283.393v7.71323Z"/><path class="cls-3" d="M340.34291,174.05536h-10.8534a21.08572,21.08572,0,0,1-4.192,8.47542h15.04538Z"/><path class="cls-3" d="M113.74743,111.61775h3.70418l-2.82005-4.28343a6.04414,6.04414,0,0,0-8.06384,0l4.817,11.55462a3.7748,3.7748,0,0,1,2.3475-.71645v-6.57Z"/><path class="cls-3" d="M113.74743,122.98945V119.6816a2.31119,2.31119,0,0,0-1.753.67072l1.09754,2.63714Z"/><path class="cls-3" d="M79.54088,118.55357v4.43588H90.13516V118.3859a17.66264,17.66264,0,0,0-5.259-.5945A15.22856,15.22856,0,0,0,79.54088,118.55357Z"/><path class="cls-3" d="M90.13516,111.61775H94.632l-.74694-4.00905c-1.52436-1.66154-3.85662-2.21031-9.00894-2.21031s-7.37788.625-9.06992,2.30178l-.73169,3.9176h4.46636V116.953a17.77076,17.77076,0,0,1,5.33525-.67072,20.66373,20.66373,0,0,1,5.259.53352Z"/><path class="cls-3" d="M313.16365,75.26187l1.60058,8.62785a5.74482,5.74482,0,0,1,2.82006-.71645,5.15877,5.15877,0,0,1,1.11278.15243l-3.4298-8.21627a1.94345,1.94345,0,0,0-2.11886.15243Z"/><path class="cls-3" d="M283.393,164.07083v8.49066h3.99381a20.84129,20.84129,0,0,1-.28963-3.52126,21.62226,21.62226,0,0,1,.59449-4.9694H283.393Z"/><path class="cls-3" d="M311.73075,67.54863l1.14327,6.14315a3.1706,3.1706,0,0,1,1.692-.28962l-2.439-5.85353h-.39632Z"/><path class="cls-3" d="M98.86971,84.77385a4.297,4.297,0,0,0-1.57008.27438L101.00381,93.92a5.36583,5.36583,0,0,1,3.36883-.97558,7.05136,7.05136,0,0,1,.82315.04573L99.92152,84.972a3.52293,3.52293,0,0,0-1.03656-.19817Z"/><path class="cls-3" d="M101.61356,95.41385l4.35966,10.47232a7.15337,7.15337,0,0,1,4.46636-1.57008,8.24778,8.24778,0,0,1,2.39324.30487L106.461,94.9413a3.994,3.994,0,0,0-2.08837-.48779A3.37293,3.37293,0,0,0,101.61356,95.41385Z"/><path class="cls-3" d="M76.62936,95.06325c-.564-1.15851-1.20424-1.692-3.0792-1.692a3.88675,3.88675,0,0,0-3.8871,2.22556h0l-3.85662,9.26809a9.82159,9.82159,0,0,1,4.00906-.8384,7.50818,7.50818,0,0,1,4.87794,1.60058L76.64461,95.0785Z"/><path class="cls-3" d="M66.52288,111.61775h7.02728l.77742-4.192a5.66488,5.66488,0,0,0-4.52733-1.9207c-2.13411,0-4.31393.85364-5.10659,1.98167L60.334,117.95908a8.47029,8.47029,0,0,1,3.14017-.51828,9.433,9.433,0,0,1,3.064.44207v-6.28035Z"/><path class="cls-3" d="M59.29744,120.42853l-1.06705,2.54567h8.27725v-3.46028a6.78312,6.78312,0,0,0-3.06395-.564,5.26249,5.26249,0,0,0-4.16149,1.47863Z"/><path class="cls-3" d="M100.28737,15.248c-3.26212-1.70728-5.79255-2.16458-6.7529-1.20424-1.93593,1.93593,1.78349,9.98453,10.21318,18.42946l104.7842,108.73231,5.59438-5.59439c-19.93858-19.67944-46.78248-46.49285-66.3857-66.26374-7.42361-7.43886-14.84722-14.87772-21.783-22.77388l.12195-.12194c21.50866,19.588,46.55382,45.7764,67.39177,66.30947,0,0,18.338,18.50568,21.6611,21.85927l5.59438-5.59438L111.96392,24.25692a50.80129,50.80129,0,0,0-11.6918-9.00894Z"/><polygon class="cls-3" points="276.869 196.021 277.524 196.021 277.524 203.064 289.079 203.064 289.079 196.021 294.902 196.021 294.902 194.024 276.869 194.024 276.869 196.021"/><rect class="cls-3" x="276.86874" y="184.0399" width="5.03038" height="8.49066"/><rect class="cls-3" x="283.39298" y="204.57296" width="5.68584" height="4.29869"/><rect class="cls-3" x="277.5242" y="204.57296" width="4.37489" height="4.29869"/><rect class="cls-3" x="276.86874" y="164.07083" width="5.03038" height="8.49066"/><path class="cls-3" d="M276.86874,182.546h15.03015a21.28376,21.28376,0,0,1-4.192-8.47542H276.86874Z"/><polygon class="cls-3" points="349.413 113.127 339.017 113.127 339.017 124.483 325.419 124.483 325.419 113.127 315.404 113.127 315.404 124.483 301.807 124.483 301.807 113.127 291.792 113.127 291.792 124.483 278.195 124.483 278.195 113.127 267.784 113.127 267.784 133.904 349.413 133.904 349.413 113.127"/><path class="cls-3" d="M328.11757,94.43826a3.25683,3.25683,0,0,0-2.74384.99084l4.35966,10.44184a7.1947,7.1947,0,0,1,4.40538-1.57009,8.25824,8.25824,0,0,1,2.46945.32012l-6.38705-9.71015a3.994,3.994,0,0,0-2.08836-.48779Z"/><path class="cls-3" d="M322.62988,84.77385a4.32242,4.32242,0,0,0-1.58532.27438L324.74874,93.92a5.204,5.204,0,0,1,3.38407-.97558,7.05131,7.05131,0,0,1,.82314.04573L323.68167,84.972a3.43555,3.43555,0,0,0-1.03655-.19817Z"/><path class="cls-3" d="M337.50761,119.69683a2.23946,2.23946,0,0,0-1.753.67072l1.09754,2.6219h.65546Z"/><path class="cls-3" d="M320.4653,83.66107a5.72164,5.72164,0,0,1,2.08836-.38109L316.441,73.99665Z"/><path class="cls-3" d="M334.16927,105.81a5.5107,5.5107,0,0,0-3.84138,1.53961l4.817,11.55461a3.93605,3.93605,0,0,1,2.36275-.73169v-6.55474h3.70417l-2.85053-4.34441a5.6978,5.6978,0,0,0-4.17675-1.47862Z"/><path class="cls-3" d="M96.70513,83.66107A5.78212,5.78212,0,0,1,98.79349,83.28l-6.11267-9.28333Z"/><polygon class="cls-3" points="127.634 231.356 150.865 231.356 150.865 218.612 128.412 218.612 128.412 219.603 127.619 220.685 127.634 220.685 127.634 231.356"/><rect class="cls-3" x="335.12962" y="144.8792" width="5.21329" height="7.71324"/><rect class="cls-3" x="235.54346" y="260.25768" width="18.29227" height="12.21008"/><polygon class="cls-3" points="44.816 333.152 41.523 333.152 41.523 338.411 351.867 338.411 351.867 333.152 348.559 333.152 347.812 333.152 45.563 333.152 44.816 333.152"/><rect class="cls-3" x="119.00645" y="232.84977" width="19.49651" height="12.21008"/><polygon class="cls-3" points="119.738 231.356 126.125 231.356 126.125 222.698 119.738 231.356"/><path class="cls-3" d="M55.94386,122.98945h.686l1.11278-2.66763a2.29073,2.29073,0,0,0-1.79874-.625Z"/><path class="cls-3" d="M74.75441,83.3562a4.85423,4.85423,0,0,1,1.189-.18292,5.69608,5.69608,0,0,1,2.75909.686l1.60057-8.6431a2.02292,2.02292,0,0,0-2.11885-.061l-3.41456,8.201Z"/><path class="cls-3" d="M70.913,83.28a5.80408,5.80408,0,0,1,2.10361.36585l4.07-9.77112L70.89778,83.28h0Z"/><path class="cls-3" d="M64.49549,92.99013a8.63242,8.63242,0,0,1,.91461-.061,5.36246,5.36246,0,0,1,3.33834.9451l3.68894-8.85651A4.3787,4.3787,0,0,0,70.913,84.7586a3.7972,3.7972,0,0,0-1.1585.22866l-5.259,7.98762Z"/><path class="cls-3" d="M54.86157,107.68491h-.03049l-2.60665,3.93284h3.70419v6.57a3.7216,3.7216,0,0,1,2.39323.67072l4.817-11.55461A5.59392,5.59392,0,0,0,58.80965,105.81,5.03878,5.03878,0,0,0,54.86157,107.68491Z"/><path class="cls-3" d="M56.81274,104.6667a7.91624,7.91624,0,0,1,1.92069-.33536,7.40512,7.40512,0,0,1,5.03037,1.5396l4.35966-10.47232a3.353,3.353,0,0,0-2.71336-.92986,3.99184,3.99184,0,0,0-2.2408.564l-6.35657,9.66442Z"/><path class="cls-3" d="M80.59269,73.66129l1.128-6.11267h-.36585l-2.439,5.85353A3.13343,3.13343,0,0,1,80.59269,73.66129Z"/><rect class="cls-3" x="235.54346" y="315.08875" width="18.29227" height="11.26499"/><rect class="cls-3" x="242.96706" y="301.38481" width="23.24643" height="12.21008"/><rect class="cls-3" x="255.32959" y="315.08875" width="19.10018" height="11.26499"/><rect class="cls-3" x="242.96706" y="246.55373" width="23.24643" height="12.19485"/><path class="cls-3" d="M235.54346,258.76381h5.92974V246.569H234.385a38.73307,38.73307,0,0,1,1.15851,9.39Z"/><rect class="cls-3" x="267.70735" y="301.38481" width="6.72241" height="12.21008"/><rect class="cls-3" x="255.32959" y="260.25768" width="19.10018" height="12.21008"/><rect class="cls-3" x="267.70735" y="246.55373" width="6.72241" height="12.19485"/><polygon class="cls-3" points="265.04 218.612 242.967 218.612 242.967 220.685 242.967 231.356 266.198 231.356 266.198 221.188 265.04 219.603 265.04 218.612"/><rect class="cls-3" x="255.32959" y="287.68084" width="19.10018" height="12.19485"/><rect class="cls-3" x="267.70735" y="273.97688" width="6.72241" height="12.21008"/><polygon class="cls-3" points="186.688 126.694 193.73 133.736 196.55 130.947 189.615 123.752 186.688 126.694"/><polygon class="cls-3" points="44.023 133.904 125.653 133.904 125.653 113.127 115.241 113.127 115.241 124.483 101.659 124.483 101.659 113.127 91.644 113.127 91.644 124.483 78.047 124.483 78.047 113.127 68.032 113.127 68.032 124.483 54.435 124.483 54.435 113.127 44.023 113.127 44.023 133.904"/><path class="cls-3" d="M100.39407,247.194h9.46625V232.84977h-24.283V238.749a18.47214,18.47214,0,0,1,14.81674,8.44493Z"/><path class="cls-3" d="M66.30947,257.25469a18.5238,18.5238,0,0,1,2.08837-8.56687H52.1787v14.32894H66.30947Z"/><path class="cls-3" d="M84.08346,238.749v-5.89924H59.61755V247.194H69.282A18.44507,18.44507,0,0,1,84.08346,238.749Z"/><rect class="cls-3" x="52.1787" y="232.84977" width="5.94499" height="14.34419"/><rect class="cls-3" x="52.1787" y="280.3487" width="14.13078" height="14.34419"/><rect class="cls-3" x="52.1787" y="264.52588" width="5.94499" height="14.32893"/><rect class="cls-3" x="59.6328" y="264.52588" width="6.67668" height="14.32893"/><rect class="cls-3" x="276.86874" y="144.8792" width="5.03038" height="7.71324"/><path class="cls-3" d="M329.09316,162.577h11.24975v-8.47542h-16.3106a21.41873,21.41873,0,0,1,5.06087,8.47542Z"/><path class="cls-3" d="M276.86874,162.577h11.24975a21.313,21.313,0,0,1,5.06088-8.47542H276.86876V162.577Z"/><polygon class="cls-3" points="341.181 210.366 326.624 210.366 326.624 197.515 315.877 197.515 315.877 210.366 301.319 210.366 301.319 197.515 290.573 197.515 290.573 210.366 276.03 210.366 276.03 197.515 266.534 197.515 266.534 218.612 350.663 218.612 350.663 197.515 341.181 197.515 341.181 210.366"/><rect class="cls-3" x="111.36943" y="232.84977" width="6.14315" height="14.34419"/><rect class="cls-3" x="103.38181" y="312.02481" width="14.13077" height="14.34419"/><rect class="cls-3" x="103.38181" y="280.3487" width="14.13077" height="14.34419"/><rect class="cls-3" x="111.36943" y="296.18675" width="6.14315" height="14.32893"/><rect class="cls-3" x="59.6328" y="296.18675" width="6.67668" height="14.32893"/><rect class="cls-3" x="103.38181" y="296.18675" width="6.49376" height="14.32893"/><path class="cls-3" d="M51.81285,231.3559h66.06558l8.2925-11.23449H43.52036Zm69.76977-9.74063-6.0212,7.74373H112.2688l5.41147-7.74373Zm-12.63691,0h3.90234l-4.66452,7.74373h-3.30785l4.05479-7.74373Zm-8.71932,0H104.144l-3.32309,7.74373H97.513Zm-8.71932,0h3.9176L93.45825,229.359H90.1504Zm-6.67668,0h1.875l-.60974,7.74373H83.6109l-.59449-7.74373h1.814Zm-7.36263,0,1.35667,7.74373h-3.2926l-1.96642-7.74373Zm-8.71932,0,2.71335,7.74373H68.15394l-3.30785-7.74373Zm-8.71931,0,4.05478,7.74373H60.77606l-4.66453-7.74373h3.9176ZM56.73652,229.359H53.42866l-6.0212-7.74373h3.91759Z"/><rect class="cls-3" x="111.36943" y="264.52588" width="6.14315" height="14.32893"/><rect class="cls-3" x="103.38181" y="264.52588" width="6.49376" height="14.32893"/><path class="cls-3" d="M117.51258,248.68782H101.29343a18.52368,18.52368,0,0,1,2.08838,8.56687v5.76207h14.13077Z"/><rect class="cls-3" x="52.1787" y="312.02481" width="14.13078" height="14.34419"/><rect class="cls-3" x="52.1787" y="296.18675" width="5.94499" height="14.32893"/><path class="cls-3" d="M84.84564,244.89217A12.58834,12.58834,0,0,0,72.26971,257.4681v68.88564H97.42158V257.4681A12.58835,12.58835,0,0,0,84.84564,244.89217Z"/><path class="cls-3" d="M101.8727,326.35374V257.25469a17.0347,17.0347,0,1,0-34.06936,0v69.09905h2.95725V257.4681a14.07743,14.07743,0,1,1,28.15485,0v68.88564Z"/><path d="M345.3428,221.61527l-6.0212,7.74373h-3.30785l5.41147-7.74373h3.91758Zm-12.6369,0-4.05479,7.74373H331.959l4.66452-7.74373H332.7059ZM321.28847,229.359h3.30785l3.30785-7.74373h-3.91761l-2.69812,7.74373Zm-19.20689-54.72437h.94509v.9451a5.58677,5.58677,0,0,0,11.17353,0v-.9451h.94509a5.59441,5.59441,0,0,0,0-11.18877h-.94509v-.9451a5.58677,5.58677,0,1,0-11.17353,0v.9451h-.94509a5.59439,5.59439,0,1,0,0,11.18877ZM313.92583,229.359h3.30785l1.9664-7.74373h-3.9176L313.9258,229.359Zm-5.30476-7.74373h-1.84448l.60974,7.74373h2.4847l.60974-7.74373h-1.8597Zm-11.29548,0L299.292,229.359h3.30785l-1.35667-7.74373h-3.91759Zm-8.71931,0,3.30785,7.74373H295.222l-2.69811-7.74373h-3.91758Zm-8.71932,0,4.66452,7.74373h3.30785l-4.05479-7.74373H279.887Zm-8.71932,0,6.0212,7.74373h3.30785l-5.41147-7.74373h-3.91758Zm-155.591,7.74373,6.0212-7.74373h-3.90234L112.284,229.359Zm-2.6981-7.74373H108.9762l-4.05479,7.74373h3.30785l4.66452-7.74373Zm-8.70407,0h-3.9176L97.54353,229.359h3.30785ZM78.35189,174.63463h.9451v.9451a5.58677,5.58677,0,0,0,11.17352,0v-.9451h.9451a5.59439,5.59439,0,1,0,0-11.18877h-.9451v-.9451a5.58677,5.58677,0,1,0-11.17353,0v.9451h-.9451a5.59439,5.59439,0,1,0,0,11.18877Zm17.10327,46.98064H91.53757L90.18089,229.359h3.30785ZM84.86089,229.359h1.26522l.60974-7.74373H83.03167l.59449,7.74373Zm-6.02121,0L77.483,221.61527H73.58065l1.96642,7.74373Zm-7.36264,0-2.71335-7.74373H64.86134l3.30785,7.74373Zm-7.36264,0-4.05479-7.74373H56.15726l4.66453,7.74373H64.1144Zm-10.67049,0h3.30785l-5.41146-7.74373H47.4227ZM348.58966,331.64326h4.80171v8.262H40.02958v-8.262h4.78648v-5.28952h5.85352v-94.007l-9.40527-12.74362V196.02132H51.59944V144.43713l-9.08516-9.48149V111.61775h7.91141l29.6792-45.07519.65547-13.56677-9.16138.73169v-9.5882l9.14613.686-.7012-10.31989h9.573l-.7012,10.31989,9.14614-.686v9.5882l-9.17663-.73169.65548,13.521h0l.03049.061,26.26464,39.89239a2.83483,2.83483,0,0,1,.32011.42682h-.03048l3.10969,4.74074h7.91141v23.33789l-9.08516,9.48149v51.58419h10.33513v12.75885h9.20711V196.50911h17.68252v12.27106h15.80758V196.50911h17.68252v12.27106h15.79233V196.50911h17.68253v12.27106H238.0434V196.50911h17.68253v12.27106h9.25286V196.02132h10.33513V144.43713l-9.08518-9.48149V111.61775h7.91142l29.6792-45.07519.67072-13.56677-9.16137.73169v-9.5882l9.14614.686-.71645-10.31989h9.58819l-.70122,10.31989,9.14614-.686v9.5882l-9.16137-.73169.65546,13.53628v.04573l26.21891,39.80093a4.39273,4.39273,0,0,1,.39633.53352h-.0305L342.98,111.633h7.91141v23.33788l-9.06991,9.4815v51.5842h10.31989v23.58179L342.73614,232.362v94.007h5.79256v5.28952ZM321.21224,257.4681a12.57594,12.57594,0,0,0-25.15187,0v68.88564h25.15187Zm1.49387,0v68.88564h2.95725V257.25469a17.0423,17.0423,0,1,0-34.08457,0v69.09905H294.536V257.4681a14.08506,14.08506,0,0,1,28.17011,0ZM211.45863,302.05551l-5.442,2.04263,1.00608,2.66762,5.442-2.04263Zm1.55485-.15245a29.56208,29.56208,0,0,0,2.72859-1.73776l-1.29571-1.32618,6.29559-6.17365,1.35668,1.37191a26.58018,26.58018,0,0,0,1.95117-2.942V260.76072h-6.12792v.09145l-2.10361,5.53342h-1.99691l-2.10361-5.53342v-.09145H205.849v.09145l-2.10362,5.53342h-1.9969l-2.10362-5.53342v-.09145h-5.86877v.09145l-2.10361,5.53342h-1.9969l-2.10361-5.53342v-.09145h-5.86876v.09145l-2.10361,5.53342h-1.9969l-2.10361-5.53342v-.09145h-6.1279v30.33467a26.6038,26.6038,0,0,0,1.93592,2.89626l1.37193-1.4024,6.29558,6.17364-1.32619,1.35668a30.63307,30.63307,0,0,0,2.8353,1.79873l.76218-1.85972,8.1553,3.30785-.71645,1.753c1.15851.27437,2.36276.503,3.61273.67072v-1.82922h8.81078v1.82922a35.54146,35.54146,0,0,0,3.67371-.68595l-.71645-1.89021,8.24677-3.10968.67072,1.78349Zm-19.19163,3.58225v2.85054h5.80779v-2.85054Zm-12.80459-.82314,5.381,2.17981,1.067-2.63713-5.381-2.17981Zm-11.60035-8.68883.85363-.86889c-.28963-.38109-.57925-.76218-.85363-1.17376v2.04265Zm1.32619.79267,4.14625,4.07,1.9969-2.0274-4.14625-4.07Zm16.85937-51.21834v-3.41456h-5.86876v3.41456Zm-5.86876,5.91451v3.41457h5.86876v-3.41457Zm17.92642-5.91451v-3.41456h-5.86876v3.41456Zm-5.86876,5.91451v3.41457h5.86876v-3.41457Zm17.92642-5.91451v-3.41456H205.849v3.41456Zm-5.86878,5.91451v3.41457h5.86878v-3.41457ZM218.56213,300.897l4.14625-4.07-1.9969-2.02739-4.14625,4.07Zm4.58831-5.76206.89936.89936v-2.10362c-.28963.41158-.5945.80791-.89936,1.20423Zm.85363-40.25825a27.84456,27.84456,0,0,0-.38109-3.41456h-5.71633v3.41456Zm-2.11885-9.329a27.62619,27.62619,0,0,0-1.73777-3.41456h-2.22557v3.41456h3.96334Zm-10.16745-12.17961a27.06341,27.06341,0,0,0-5.86878-2.92676v5.79256h5.86878Zm-12.05766-4.34442a26.48965,26.48965,0,0,0-2.92676-.15244c-.99082,0-1.96642.061-2.92676.15244v7.195h5.86878v-7.195Zm-12.05766,1.41764a27.06288,27.06288,0,0,0-5.86877,2.92676v2.8658h5.86877Zm-16.03623,15.10637h3.96332v-3.41456H173.304A25.66277,25.66277,0,0,0,171.56622,245.54765Zm-2.11885,9.329h6.09742v-3.41456H169.8437a25.16071,25.16071,0,0,0-.38109,3.41456Zm-.03048,71.477H224.0498V297.61963l-5.50292,5.39621-1.73777-1.76826a32.79184,32.79184,0,0,1-3.26212,2.07312l.85364,2.2713-8.24677,3.10968-.82315-2.16459a34.95381,34.95381,0,0,1-4.22247.77742v2.51517h-8.81077v-2.51517a35.54317,35.54317,0,0,1-4.17673-.77742l-.91461,2.256-8.15531-3.30785.88413-2.14934a29.9528,29.9528,0,0,1-3.32309-2.11886l-1.692,1.73777-5.50292-5.39621v28.79508Zm56.142-70.16609v70.16609h8.52114v-70.41a37.465,37.465,0,0,0-1.32618-9.93881,37.42119,37.42119,0,0,0-15.6399-21.341l.41158-.64023h0l-.41158.625a37.17385,37.17385,0,0,0-20.3654-6.03646,37.38324,37.38324,0,0,0-36.00527,27.40791,37.46508,37.46508,0,0,0-1.32619,9.93881v70.41h8.52115v-70.1661a28.82558,28.82558,0,0,1,57.65115,0ZM97.46731,257.4681a12.57594,12.57594,0,0,0-25.15187,0v68.88564H97.46731Zm1.49387,0v68.88564h2.95726V257.25469a17.0347,17.0347,0,1,0-34.06936,0v69.09905h2.95725V257.4681a14.07743,14.07743,0,1,1,28.15485,0Zm28.70363-36.78271h0v10.67049h23.24642V218.61226H128.45747v.99083l-.79266,1.067Zm49.49583,1.753a38.35164,38.35164,0,0,1,8.87175-3.82613h-8.87175Zm-1.49388-3.82613H152.42034v12.74362h14.28322a38.56638,38.56638,0,0,1,8.948-8.00287v-4.74075Zm-24.74028,94.98261V301.38479H127.68005v12.21008ZM52.23969,278.85481h5.945V264.52588h-5.945Zm14.13078-14.32893H59.69379v14.32893h6.67668Zm-14.13078,30.167H66.37047V280.3487H52.23969Zm0,15.82282h5.945V296.18677h-5.945Zm7.4541,0h6.67668V296.18677H59.69379Zm8.78029-61.82787H52.25494v14.32894H66.38571v-5.76206A18.52381,18.52381,0,0,1,68.47408,248.68784Zm15.68562-9.954v-5.89925H59.69379v14.3442h9.66442a18.445,18.445,0,0,1,14.80149-8.44492Zm1.49387,0a18.47213,18.47213,0,0,1,14.81673,8.44492h9.46625V232.83453h-24.283v5.89925Zm72.26971,48.93183H140.05783v12.19485h17.86545ZM138.564,299.86048V287.66563H119.06745v12.19485Zm-20.99037-5.1828v-14.3442H103.44281v14.3442Zm-14.13078-15.83806h6.49375V264.51069h-6.49375Zm47.48368,7.33215V273.96169H127.68006v12.21008Zm-31.859,0h7.11874V273.96169h-7.11874Zm19.49651-13.704V260.25772H119.06745V272.4678Zm-12.36252-13.704V246.569H119.0827v12.19485Zm-8.61262,5.76206h-6.14315v14.32893h6.14315Zm40.3497,9.451h-5.48768V286.187h5.48768Zm0-13.704H140.07307V272.483h17.86545Zm-6.99678-1.49386V246.58423H127.69531v12.19484Zm-12.36253-13.704V232.865H119.0827V245.0751Zm-12.36253-13.704v-8.65833l-6.38705,8.65833Zm-8.61261,1.49386h-6.14315v14.34419h6.14315Zm-16.21914,15.83806a18.52374,18.52374,0,0,1,2.08837,8.56687V263.032h14.13078V248.70306Zm2.08837,61.82786h6.49376V296.202H103.4733Zm7.98762,0h6.14315V296.202h-6.14315Zm7.637,3.064h7.11873V301.38479H119.098Zm33.35289,0h5.48768V301.38479h-5.48768Zm6.6462-67.02593h-6.6462v12.19485h5.48768V255.959A38.73316,38.73316,0,0,1,159.097,246.56894Zm6.46326-13.704H140.07307v12.21008h19.42029A38.49617,38.49617,0,0,1,165.5603,232.865Zm-39.31313-12.74362H43.52036l8.29249,11.2345h66.06558l8.2925-11.2345ZM52.25494,232.865v14.34419h5.945V232.865Zm0,93.504H66.38571V312.02476H52.25494Zm51.2031,0h14.13078V312.02476H103.458Zm15.62465,0H138.5792V315.104H119.08269Zm20.99038,0h17.86545V315.104H140.07307ZM265.116,219.61832v-.99082H243.04331v12.74362h23.24642V221.2189l-1.17376-1.58532Zm76.59888,11.73754,8.2925-11.2345H267.35678l8.2925,11.2345h66.06557Zm-8.0181,15.838V232.84972H309.429V238.749a18.4721,18.4721,0,0,1,14.81674,8.44492h9.451Zm-57.69686,31.66088h5.96024V264.52585h-5.96024Zm14.13079-14.32894H283.454v14.32894h6.67669Zm-14.13079,30.167h14.13079V280.34865H275.99989Zm0,15.82282h5.96024V296.18673h-5.96024Zm7.4541,0h6.67669V296.18673H283.454ZM292.219,248.6878H275.99989v14.32893h14.13079v-5.76206A18.52391,18.52391,0,0,1,292.219,248.6878Zm15.70087-9.954v-5.89925H283.454V247.1787h9.64918a18.44989,18.44989,0,0,1,14.81674-8.44492ZM274.506,301.36953h-6.72241v12.21008H274.506Zm-8.23151,12.21008V301.36953H243.0281v12.21008Zm-38.30707-80.74513a38.534,38.534,0,0,1,6.08219,12.21008h19.84712V232.83448H227.96745Zm39.80093-9.61868v8.12482h5.99071Zm-12.36252,9.61868v12.21008H274.506V232.83448Zm10.86866,25.91405V246.55369H243.0281v12.19484Zm0,27.42317V273.96162H243.0281V286.1717Zm-12.36253,13.704V287.68082H235.61973v12.19485Zm-18.29226-13.704h5.92974V273.96162h-5.92974Zm18.29226-13.704V260.25765H235.61973v12.21008Zm-19.466-25.914a38.733,38.733,0,0,1,1.15851,9.39v2.80481h5.92974V246.55369Zm1.15851,67.02592h5.92974V301.36953h-5.92974Zm38.90156-25.914H255.40586v12.19485H274.506Zm0-13.704h-6.72241v12.21008H274.506Zm0-13.704H255.40586v12.21008H274.506Zm0-13.704h-6.72241v12.19485H274.506ZM241.53421,218.597H218.28778v5.03038a38.31175,38.31175,0,0,1,8.61261,7.83519v-.13719h14.63382V218.597Zm-24.74029,0h-9.34431a38.58267,38.58267,0,0,1,9.34431,4.08527Zm18.81055,107.74146h18.29227v-11.265H235.60447Zm19.80139,0H274.506v-11.265H255.40586Zm20.594-93.504v14.34419h5.96024V232.83446Zm0,93.504h14.13079v-14.3442H275.99989ZM327.203,278.82427h6.47851V264.49534H327.203Zm0,31.67611h6.47851V296.17145H327.203Zm0,15.83806h14.11552v-14.3442H327.203Zm14.11552-30.167h-6.14315v14.32894h6.14315Zm0-15.83805H327.203v14.34419h14.11552Zm0-15.82282h-6.14315v14.32893h6.14315Zm0-15.82282H325.09938a18.52391,18.52391,0,0,1,2.08836,8.56687v5.76206h14.11553V248.68773Zm0-15.83806h-6.14315v14.3442h6.14315Zm-13.13994-23.97811h5.68585v-4.29869h-5.68585Zm7.195,0h4.37489v-4.29869h-4.37489Zm5.03037-12.85033v-1.9969H321.51716v1.9969h6.66142V203.079H339.7332v-7.05778h.67072Zm-37.51439,12.85031h5.03038v-4.29869h-5.03038Zm6.52424,0h5.01512v-4.29869h-5.01512Zm10.60953-12.85031v-1.9969H296.45675v1.9969h6.41754V203.079h11.55462v-7.05778Zm20.38062-11.98144h-5.21329v8.49067h5.21329Zm-6.72241,8.49067v-8.49067H324.0171a21.183,21.183,0,0,1-14.60333,6.448v2.04264Zm-41.73687-9.98454a21.28392,21.28392,0,0,1-4.192-8.47541H276.91449v8.47541Zm-15.03015-19.96906h11.24976a21.313,21.313,0,0,1,5.06087-8.47541h-16.3106v8.47541Zm6.52424-17.68252v7.71324h11.40218a21.36218,21.36218,0,0,1,13.06374-5.01514v-2.6981Zm50.22752,7.71324v-7.71324H309.39851v2.6981a21.39736,21.39736,0,0,1,13.06372,5.01514Zm-46.52334,16.44779a21.62234,21.62234,0,0,1,.5945-4.9694h-4.2987v8.49066h3.99381a20.84129,20.84129,0,0,1-.28964-3.52126Zm-10.24367,3.52126h5.03037V164.086h-5.03037Zm17.21,10.19795a20.00986,20.00986,0,0,0,34.09986-9.60344,20.60923,20.60923,0,0,0,.42681-4.11575,19.994,19.994,0,0,0-33.06325-15.13686l-.503-.57925h0l.4878.57925a19.93557,19.93557,0,0,0-6.92059,15.13686,19.54631,19.54631,0,0,0,.42682,4.11575,19.81353,19.81353,0,0,0,5.04561,9.60345ZM333.651,172.57663V164.086h-4.11575a21.82538,21.82538,0,0,1,.5945,4.9694,22.55037,22.55037,0,0,1-.28964,3.52126H333.651Zm6.72242,1.49388H329.52a21.08574,21.08574,0,0,1-4.192,8.47541h15.04539Zm0-9.98454h-5.2133v8.49066h5.2133Zm0-9.98453h-16.3106a21.41863,21.41863,0,0,1,5.06087,8.47541h11.24975v-8.47541Zm0-9.20711h-5.2133v7.71323h5.2133Zm.42682-1.49388,7.637-7.97238H268.82015l7.637,7.97238Zm-63.901,1.49388v7.71323h5.03037v-7.71323Zm0,47.65136h5.03037V184.055h-5.03037Zm6.52424,0h24.46591v-2.01215a21.53952,21.53952,0,0,1-14.61857-6.46326h-9.83209v8.49066Zm19.90808-69.55635h10.59427v-4.60355a17.59531,17.59531,0,0,0-5.259-.59449,15.16958,15.16958,0,0,0-5.33524.76217Zm15.09111-11.35644-.73168-3.99382c-1.52436-1.66154-3.84139-2.22556-9.009-2.22556s-7.39314.625-9.08517,2.30178l-.73169,3.9176h4.46635v5.33524a17.77085,17.77085,0,0,1,5.33525-.67072,20.66348,20.66348,0,0,1,5.259.53352v-5.198h4.48161Zm-38.70339,11.35644h.68595l1.11278-2.68287a2.34907,2.34907,0,0,0-1.79873-.625v3.30786Zm2.30177,0h8.2925v-3.46028a6.87132,6.87132,0,0,0-3.064-.564,5.26248,5.26248,0,0,0-4.16148,1.47863l-1.067,2.54567Zm15.30452-11.35644.77741-4.192a5.53921,5.53921,0,0,0-4.52734-1.92069h-.04572c-2.14935,0-4.31393.88413-5.07611,2.01215l-4.34443,10.44183a8.47029,8.47029,0,0,1,3.14017-.51827,9.01181,9.01181,0,0,1,3.06395.45731V111.6329h7.01207ZM322.64512,84.789a4.32217,4.32217,0,0,0-1.58532.27439l3.70417,8.87175a5.204,5.204,0,0,1,3.38407-.97559,7.05136,7.05136,0,0,1,.82315.04573l-5.27428-8.01812a3.43552,3.43552,0,0,0-1.03656-.19816Zm-24.1153-1.41765a4.40191,4.40191,0,0,1,1.189-.18292,5.6374,5.6374,0,0,1,2.74384.686l1.60058-8.64309a1.99,1.99,0,0,0-2.11885-.061ZM319.505,85.21581a4.76427,4.76427,0,0,0-1.89021-.51828,4.24342,4.24342,0,0,0-2.53044.8079l1.40241,7.576a4.51376,4.51376,0,0,1,3.52126-1.20424,6.84162,6.84162,0,0,1,2.45421.42682l-2.95725-7.08826Zm-17.25569,8.12482a10.471,10.471,0,0,1,6.41754-1.73777,10.73445,10.73445,0,0,1,6.32607,1.58533l-1.52436-8.24676c-1.02131-1.41765-2.45421-2.01215-4.78647-2.01215-2.89627,0-4.11576,1.09754-4.89319,2.21032l-1.52436,8.18579ZM311.685,75.338a7.20442,7.20442,0,0,0-3.01822-.74693,6.85606,6.85606,0,0,0-3.01821.79266v.04573l-.09146.03049-1.32618,7.134a7.687,7.687,0,0,1,4.43588-1.17376,8.05413,8.05413,0,0,1,4.32916,1.02132l-1.32618-7.11875ZM294.81039,92.31931a6.5177,6.5177,0,0,1,2.53044-.45731,4.52831,4.52831,0,0,1,3.46029,1.14327l1.40241-7.54556a4.21733,4.21733,0,0,0-2.45422-.76218,4.84461,4.84461,0,0,0-1.98166.564l-2.942,7.073Zm-5.22853,12.54544a9.9889,9.9889,0,0,1,3.94808-.85363h.061a7.55018,7.55018,0,0,1,4.8627,1.60058l1.95117-10.56379c-.564-1.15851-1.20423-1.692-3.0792-1.692a3.88673,3.88673,0,0,0-3.88711,2.22556h0l-3.85662,9.26809Zm10.41136.64023c1.8902-1.14327,4.49684-1.60058,8.67358-1.60058,3.85662,0,6.58523.27439,8.58213,1.46338l-1.79872-9.66441c-1.37192-1.82923-3.38408-2.60665-6.78338-2.60665-4.0548,0-5.76207,1.4024-6.78338,2.63713-.04573.04573-.061.07622-.10672.122l-1.78349,9.64917Zm23.39887-1.47863a10.15525,10.15525,0,0,1,4.29869.80791l-4.07-9.77112a3.87538,3.87538,0,0,0-3.61271-1.70728c-1.90545,0-2.53044.53353-3.10968,1.76826l.0305.04572-.04573.03049,1.93593,10.44184a7.21551,7.21551,0,0,1,4.55784-1.63106Zm10.7772.28963a8.25824,8.25824,0,0,1,2.46945.32012l-6.387-9.71015a3.994,3.994,0,0,0-2.08836-.48779,3.25688,3.25688,0,0,0-2.74385.99083l4.35966,10.44184a7.1947,7.1947,0,0,1,4.40539-1.57008ZM318.74282,83.34085l-3.4298-8.21628a1.94344,1.94344,0,0,0-2.11885.15243l1.60057,8.62786a5.74478,5.74478,0,0,1,2.82007-.71645,5.15805,5.15805,0,0,1,1.11277.15243ZM311.7765,67.54852l1.14327,6.14315a3.1706,3.1706,0,0,1,1.692-.28962l-2.439-5.85353h-.39633Zm-4.72551,0-1.128,6.08218a7.47964,7.47964,0,0,1,2.77434-.54877,7.85973,7.85973,0,0,1,2.68285.503l-1.128-6.05169H307.051Zm-1.52436,0h-.38108l-2.439,5.85353a3.13347,3.13347,0,0,1,1.6768.25913Zm-4.634,6.32608-6.18888,9.40527h0a5.863,5.863,0,0,1,2.10362.36585l4.07-9.77112ZM288.30143,93.00526a8.63251,8.63251,0,0,1,.91463-.061,5.36254,5.36254,0,0,1,3.33834.9451l3.68894-8.85651a4.3787,4.3787,0,0,0-1.52436-.25914,3.71252,3.71252,0,0,0-1.1585.22865l-5.259,7.98763Zm-7.68274,11.66132a8.70869,8.70869,0,0,1,1.93594-.35061,7.30315,7.30315,0,0,1,5.01512,1.52436L291.92941,95.368a3.353,3.353,0,0,0-2.71335-.92986,4.06257,4.06257,0,0,0-2.24081.564Zm46.34041,6.96631v6.31083a9.05393,9.05393,0,0,1,3.15542-.47255,8.78871,8.78871,0,0,1,3.06395.48779l-4.40539-10.56378c-.92986-1.14327-3.17066-1.95118-5.30475-1.84447a5.52829,5.52829,0,0,0-4.2682,1.96642l.76218,4.131h6.99679Zm0,11.35644h8.30773l-1.09754-2.62189a5.41023,5.41023,0,0,0-4.07-1.41765,6.75115,6.75115,0,0,0-3.15542.60974v3.41455Zm10.59426,0v-3.29261a2.2394,2.2394,0,0,0-1.753.67072l1.09754,2.62189Zm3.70418-11.35644-2.85054-4.34442a5.69778,5.69778,0,0,0-4.17674-1.47862,5.51074,5.51074,0,0,0-3.84139,1.5396l4.817,11.55462a3.93611,3.93611,0,0,1,2.36276-.7317v-6.55473h3.70417ZM316.48676,74.01178l4.02429,9.66442a5.72172,5.72172,0,0,1,2.08836-.38109Zm-10.3199-22.65192-.71645,14.69479h6.40229l-.71645-14.69479,9.23759.73169V45.735l-9.25285.70121.71645-10.45709h-6.37179l.73168,10.45709-9.26808-.70121v6.35657l9.25285-.73169Zm-30.13652,60.273h3.70417v6.57a3.72167,3.72167,0,0,1,2.39325.67072l4.817-11.55461a5.60879,5.60879,0,0,0-4.32916-1.49388,5.01454,5.01454,0,0,0-3.94808,1.875H278.637Zm-8.201,1.49387v20.777h81.62925v-20.777H339.06244V124.4832H325.46519V113.12676h-10.015V124.4832H301.85291V113.12676h-10.015V124.4832H278.24063V113.12676H267.8293Zm9.08517,82.89447h.65546V203.079h11.55462v-7.05778h5.82305v-1.9969H276.91447Zm.65546,12.85031h4.3749v-4.29869h-4.3749Zm5.86878,0h5.68584v-4.29869h-5.68584Zm-16.85937-11.35645v21.09708h84.1292V197.51509H341.227v12.85033h-14.5576v-12.8503H315.92273v12.8503H301.38038v-12.8503H290.63367v12.8503H276.09133v-12.8503H266.5946ZM128.45747,210.27394v6.82911h136.628v-6.82911H254.32351V198.00288H239.62872v12.27106H220.83341V198.00288H206.13862v12.27106H187.34331V198.00288H172.64852v12.27106H153.85321V198.00288H139.15843v12.27106h-10.701Zm-24.0391-1.41764h5.68585v-4.29869h-5.68585Zm7.195,0H115.973v-4.29869h-4.35966Zm5.01513-12.85033v-1.9969H97.75694v1.9969h6.66144v7.05778H115.973V196.006ZM79.11407,208.85628H84.1292v-4.29869H79.11407Zm6.52424,0h5.03037v-4.29869H85.63831ZM96.26307,196.006v-1.9969H72.69653v1.9969h6.41754v7.05778H90.66868V196.006Zm20.36539-11.98143h-5.21329v8.49066h5.21329Zm-6.70717,8.49066v-8.49066h-9.66441a21.40444,21.40444,0,0,1-14.61857,6.46326V192.5h24.283Zm-41.73685-9.98454a21.453,21.453,0,0,1-4.17674-8.47541H53.16953v8.47541ZM53.16954,162.5616H64.41928a21.3133,21.3133,0,0,1,5.06086-8.47541H53.16954Zm6.52424-17.68252v7.71324H71.096a21.36228,21.36228,0,0,1,13.06373-5.01514v-2.6981Zm50.24276,7.71324v-7.71324h-24.283v2.6981a21.39745,21.39745,0,0,1,13.06373,5.01514ZM63.4132,169.04012a21.62236,21.62236,0,0,1,.5945-4.96941H59.69378v8.49066h4.00905A20.84436,20.84436,0,0,1,63.4132,169.04012Zm-10.24367,3.52125h5.01513v-8.49066H53.16953Zm17.05754,10.0455a20.06935,20.06935,0,0,0,14.67955,6.43279,20.03946,20.03946,0,0,0,19.57272-15.86855,20.60779,20.60779,0,0,0,.42682-4.11576,19.67247,19.67247,0,0,0-.77742-5.50292,19.98534,19.98534,0,0,0-39.20643,5.50293,19.5464,19.5464,0,0,0,.42682,4.11576h0a19.86754,19.86754,0,0,0,4.89318,9.451Zm39.70946-10.0455v-8.49066h-4.11576a21.72351,21.72351,0,0,1,.5945,4.96941,22.54913,22.54913,0,0,1-.28963,3.52125h3.81089Zm6.70717,1.49388H105.80553a21.08568,21.08568,0,0,1-4.192,8.47541H116.6437Zm0-9.98454h-5.2133v8.49066h5.2133Zm0-9.98453H100.34833a21.10582,21.10582,0,0,1,5.04561,8.47541h11.24974Zm0-9.20711h-5.2133v7.71323h5.2133Zm.42681-1.49388,7.637-7.97238H45.02947l7.637,7.97238h64.404Zm-63.901,1.49388v7.71323h5.01514v-7.71323Zm0,47.65136h5.01514v-8.49066H53.16952Zm6.52424,0H84.15967v-2.01215a21.53888,21.53888,0,0,1-14.6643-6.52424v.04573H59.709v8.49066Zm19.92333-69.55635H90.21137v-4.60355a17.66269,17.66269,0,0,0-5.259-.59449,15.22833,15.22833,0,0,0-5.33525.76217ZM94.693,111.61764l-.74694-4.009c-1.52435-1.66155-3.85661-2.21031-9.00894-2.21031s-7.37788.625-9.06992,2.30178l-.73169,3.91759h4.46637v5.33525a17.77034,17.77034,0,0,1,5.33524-.67073,20.66316,20.66316,0,0,1,5.259.53353v-5.19806ZM56.00483,122.97408h.686l1.11278-2.66762a2.29069,2.29069,0,0,0-1.79874-.625Zm2.30177,0h8.27725V119.5138a6.78311,6.78311,0,0,0-3.06395-.564,5.26254,5.26254,0,0,0-4.16149,1.47862l-1.06705,2.54567Zm15.31978-11.35644.77741-4.192a5.66487,5.66487,0,0,0-4.52733-1.92069c-2.1341,0-4.31393.85363-5.10659,1.98167L60.41021,117.959a8.4705,8.4705,0,0,1,3.14017-.51827,9.43312,9.43312,0,0,1,3.064.44206V111.6024h7.02728Zm25.3043-26.84391a4.29708,4.29708,0,0,0-1.57009.27439l3.70419,8.87175a5.36572,5.36572,0,0,1,3.36882-.97559,7.05153,7.05153,0,0,1,.82316.04573l-5.27427-8.01812a3.52294,3.52294,0,0,0-1.03656-.19816ZM74.81537,83.35608a4.85472,4.85472,0,0,1,1.189-.18292,5.69618,5.69618,0,0,1,2.75908.686L80.364,75.216a2.02292,2.02292,0,0,0-2.11886-.061l-3.41456,8.201Zm19.06969,1.32619a4.19787,4.19787,0,0,0-2.51518.80791l1.4024,7.57605a4.48683,4.48683,0,0,1,3.506-1.20425,6.78148,6.78148,0,0,1,2.4542.42682l-2.95724-7.08826a4.849,4.849,0,0,0-1.90545-.53352ZM78.5348,93.32537a10.42272,10.42272,0,0,1,6.4023-1.73777,10.73447,10.73447,0,0,1,6.32608,1.58534l-1.52436-8.24677c-1.02131-1.4024-2.45421-2.01215-4.80172-2.01215-2.881,0-4.10052,1.09754-4.89318,2.21032Zm9.43576-18.00264a7.37784,7.37784,0,0,0-3.01822-.74694,6.90718,6.90718,0,0,0-3.09444.85364l-1.32619,7.14923a7.666,7.666,0,0,1,4.42064-1.15851,8.18406,8.18406,0,0,1,4.34441,1.02131ZM71.096,92.30405a6.51784,6.51784,0,0,1,2.53043-.45731A4.52827,4.52827,0,0,1,77.08666,92.99l1.40241-7.54556a4.23027,4.23027,0,0,0-2.46946-.76218,5.23816,5.23816,0,0,0-1.96642.54877l-2.942,7.073ZM65.8674,104.8495a9.82143,9.82143,0,0,1,4.00906-.83841,7.50823,7.50823,0,0,1,4.87794,1.60058l1.95117-10.54854c-.564-1.1585-1.20424-1.692-3.07919-1.692a3.88674,3.88674,0,0,0-3.88711,2.22556h0l-3.85662,9.26808Zm10.4266.64022c1.8902-1.14327,4.49685-1.60058,8.65834-1.60058,3.85662,0,6.60046.27439,8.59736,1.46338L91.751,95.68811c-1.37192-1.82923-3.39931-2.60665-6.79862-2.60665-4.05479,0-5.74682,1.40241-6.76814,2.63714a.63569.63569,0,0,0-.09146.12195l-1.7835,9.64917Zm18.82579.15243a7.29351,7.29351,0,0,1,4.54258-1.63106,9.99576,9.99576,0,0,1,4.31393.80791l-3.97857-9.54247a3.848,3.848,0,0,0-3.70418-1.93593c-1.90545,0-2.53043.53352-3.10969,1.76825a.93233.93233,0,0,0,.061.09146l-.061.03049Zm15.396-1.34142a8.24778,8.24778,0,0,1,2.39324.30486l-6.37181-9.67965a3.99391,3.99391,0,0,0-2.08837-.4878,3.37293,3.37293,0,0,0-2.75908.96035l4.35966,10.47232A7.15331,7.15331,0,0,1,110.51578,104.30073Zm-14.085-19.6642Zm-1.40241-1.2957-3.4298-8.21627a1.9373,1.9373,0,0,0-2.11885.13719l1.60057,8.62785a5.74491,5.74491,0,0,1,2.82006-.71645,5.43869,5.43869,0,0,1,1.128.15244ZM88.062,67.54851l1.14326,6.14315a3.35026,3.35026,0,0,1,1.692-.28963l-2.439-5.85352H88.062Zm-4.74075,0-1.128,6.09742a7.33272,7.33272,0,0,1,2.75909-.54877,7.95339,7.95339,0,0,1,2.69811.503l-1.128-6.05169H83.32128Zm-1.52436,0h-.36584l-2.439,5.85352a3.13343,3.13343,0,0,1,1.67679.25914Zm-4.634,6.32608L70.974,83.27986h0a5.80418,5.80418,0,0,1,2.10362.36585l4.07-9.77112ZM64.5717,93.00525a8.63224,8.63224,0,0,1,.91461-.061,5.36255,5.36255,0,0,1,3.33834.9451l3.68894-8.85651a4.37867,4.37867,0,0,0-1.52436-.25913,3.79717,3.79717,0,0,0-1.1585.22865L64.5717,92.99Zm-7.68276,11.66132a7.91641,7.91641,0,0,1,1.92069-.33536,7.40509,7.40509,0,0,1,5.03037,1.5396l4.35966-10.47232a3.35293,3.35293,0,0,0-2.71335-.92986,3.99179,3.99179,0,0,0-2.2408.564l-6.35657,9.66441Zm46.34042,6.9663v6.31084a9.05385,9.05385,0,0,1,3.15542-.47255,8.49167,8.49167,0,0,1,3.064.503l-4.40539-10.579c-.94511-1.15852-3.1859-1.95118-5.32-1.85972a5.4796,5.4796,0,0,0-4.25295,1.96642l.76217,4.131Zm0,11.35645h8.30774l-1.09754-2.62189a5.40386,5.40386,0,0,0-4.07-1.40241,6.751,6.751,0,0,0-3.15542.60975v3.41455Zm10.59427,0v-3.30785a2.31118,2.31118,0,0,0-1.753.67072l1.09754,2.63714Zm3.70418-11.35645-2.82005-4.28343a6.04415,6.04415,0,0,0-8.06385,0l4.817,11.55462a3.77484,3.77484,0,0,1,2.34751-.71645v-6.57h3.70419ZM92.757,74.01177l4.0243,9.66442a5.78226,5.78226,0,0,1,2.08837-.38109ZM82.4219,51.35985l-.71645,14.69478h6.4023L87.3913,51.35985l9.25284.73169V45.735l-9.26808.7012.71645-10.45708H81.736l.71645,10.45708-9.25284-.7012v6.35657l9.2376-.73169Zm-30.12127,60.273h3.70419v6.57a3.72154,3.72154,0,0,1,2.39323.67072l4.817-11.55462a5.594,5.594,0,0,0-4.32917-1.49387,5.03878,5.03878,0,0,0-3.94808,1.875h-.03049Zm-8.201,1.49388v20.777h81.62925v-20.777H115.31749v11.35644H101.72024V113.12675h-10.015v11.35644h-13.582V113.12675H68.1082v11.35644h-13.582V113.12675H44.09959Zm9.08516,82.89446h.65548V203.079H65.39484v-7.05777h5.823v-1.9969H53.18475Zm.65548,12.85033h4.35966v-4.29869H53.84023Zm5.85352,0H65.3796v-4.29869H59.69375ZM42.84962,197.51509v21.09708h84.1292V197.51509h-9.49675v12.85033h-14.5576v-12.8503H92.17776v12.8503H77.63541v-12.8503H66.8887v12.8503H52.34635v-12.8503H42.84961Zm3.53651,134.12807H347.06531v-3.79565H46.32517v3.79565ZM348.63539,333.137H41.52345v5.27428H351.867V333.137h-3.23165Zm7.08824,19.57272c-41.493,53.322-93.09241,69.58685-128.32025,77.19337l-.18292.03047a282.31925,282.31925,0,0,1-33.4596,2.16461,185.97372,185.97372,0,0,1-29.08471-2.17982l-.12195-.03047c-63.29126-14.146-97.05573-34.51144-129.03672-77.80313C12.78935,321.44531.19817,284.312,0,247.57505L.09146.00443H393.36v237.083c.76218,43.10878-11.58511,80.9433-37.69731,115.63763Zm33.70351-115.5919V3.99824H4.08527L3.99381,247.55979c.18292,35.89858,12.49972,72.17825,34.66385,102.1623,31.31027,42.39233,64.43453,62.34614,126.62823,76.26352,17.95691,2.82007,37.43819,2.82007,61.29435,0,34.60287-7.48459,85.25723-23.47507,125.89653-75.69951,25.5482-33.91692,37.62111-70.94353,36.87417-113.16816ZM67.89481,169.04023a16.94322,16.94322,0,1,1,16.9356,16.9356A16.96993,16.96993,0,0,1,67.89481,169.04023Zm1.49386,0a15.44935,15.44935,0,1,0,15.44173-15.457A15.46058,15.46058,0,0,0,69.38867,169.04023ZM203.42527,280.9127l4.95416,6.73765-8.323-.89936-3.36883,7.65227-3.36883-7.65227-8.30773.89936,4.92367-6.75289-4.93891-6.73764,8.323.89936,3.36884-7.65227,3.36884,7.65227,8.30773-.91462-4.92366,6.75288Zm-1.85972,0,3.567-4.89319-6.0212.65546-2.439-5.53342-2.439,5.54865-6.0212-.65546,3.58224,4.87794-3.567,4.89319,6.0212-.65546,2.439,5.53342,2.439-5.54866,6.0212.64023-3.58225-4.87794ZM169.43213,164.7568l-.53352.53352.53352.53352A9.73867,9.73867,0,1,1,155.6672,179.604l-.53352-.53352-.53352.53352A9.74407,9.74407,0,1,1,140.82,165.82384l.53352-.53352-.53352-.53352a9.73866,9.73866,0,1,1,13.76493-13.78017l.53352.53352.53353-.53352a9.73328,9.73328,0,0,1,13.76493,13.76493Zm-2.66762.53352,1.60058-1.60058A8.235,8.235,0,1,0,156.719,152.04366l-1.60058,1.60058-1.60058-1.60058a8.24677,8.24677,0,0,0-14.06979,5.823,8.13874,8.13874,0,0,0,2.42372,5.823l1.60058,1.60058-1.60058,1.60058a8.24041,8.24041,0,1,0,11.64607,11.66132l1.60058-1.60058,1.60058,1.60058a8.24041,8.24041,0,1,0,11.64608-11.66132ZM102.6806,33.525c-7.43885-7.4541-13.55152-17.19473-10.21318-20.53307,1.50911-1.50912,4.45112-1.189,8.5059.92985a53.03177,53.03177,0,0,1,12.04241,9.26808l89.14432,85.88221,32.84987-32.84986-5.884-5.884,13.38384-13.38384-4.8322-4.83221L224.2937,65.506,211.44337,52.67092l6.95106-6.9663,5.89925,5.89925,6.43278-6.43278-5.884-5.884,6.95106-6.96631,23.56655,23.58178,2.942-2.942L234.7355,29.37876l6.95106-6.95106,5.884,5.884,6.43278-6.43278-5.89925-5.89925,6.96632-6.95107L267.9055,21.87893,254.52166,35.26278l4.8322,4.8322L272.7377,26.71114l5.884,5.884,8.58213-8.58212a6.48885,6.48885,0,1,1,9.1766,9.17662L211.50431,118.081l10.25891,9.87783.88413-.88413h0l.53353-.53352A100.42151,100.42151,0,0,1,237.40313,114.697c-1.60058-2.75908-1.7835-5.24379-.44206-6.60046,1.35668-1.35668,3.90235-1.14327,6.69192.503,2.42372-1.753,4.99989-2.0274,6.40229-.625,1.38717,1.38716,1.11278,3.97856-.625,6.38705,1.66154,2.78957,1.85972,5.32.48781,6.69192-1.35668,1.35668-3.84139,1.17375-6.58523-.42682a101.0506,101.0506,0,0,1-11.34121,13.704h.01523l-1.00608,1.03656c1.067.92986,2.07313,1.814,2.98775,2.66762,1.20423,1.09754,2.42372,2.256,3.64321,3.4298.625.60975,1.26522,1.23473,1.875,1.85972.564.564,1.11277,1.11278,1.66154,1.67679,1.14327,1.17375,2.28654,2.39324,3.4298,3.628,1.15851,1.25,2.2713,2.51519,3.32309,3.74991,1.05181,1.21949,2.13409,2.51519,3.21639,3.85662,1.02131,1.26522,2.07312,2.6219,3.09444,4.00905,1.0823,1.46338,2.05789,2.86579,2.92676,4.17674.88413,1.34142,1.63107,2.53043,2.2713,3.6432.53353.89937,1.00608,1.7835,1.44813,2.63714a12.21459,12.21459,0,0,1,11.951,15.31978,3.96517,3.96517,0,0,1,.4878.39634,4.74268,4.74268,0,0,1-6.70715,6.70716.26721.26721,0,0,1-.061-.07623,11.24287,11.24287,0,0,1-4.28343.85364,12.31025,12.31025,0,0,1-12.17961-12.393c-.85364-.44206-1.73777-.92986-2.63713-1.44813-1.23473-.7317-2.45422-1.49388-3.628-2.28654-1.37191-.89936-2.77433-1.89019-4.17674-2.92676-1.34144-.99083-2.69812-2.02739-4.00906-3.07919-1.41764-1.14327-2.68286-2.19508-3.85662-3.23164-1.14327-.97559-2.36276-2.05788-3.73467-3.3231-1.25-1.128-2.46945-2.28653-3.64321-3.445-.564-.53352-1.11277-1.09754-1.6768-1.64631-.64022-.64023-1.26522-1.26522-1.85971-1.8902-1.11278-1.14326-2.2713-2.378-3.4298-3.628-.96036-1.03656-1.85972-2.07312-2.65239-2.98774l-.77741.77743h-.0305a102.327,102.327,0,0,1-13.82592,11.46315c1.61582,2.74384,1.7835,5.22854.44206,6.58522-1.35668,1.35667-3.90235,1.15851-6.69192-.503a7.16005,7.16005,0,0,1-4.0548,1.52435,3.197,3.197,0,0,1-2.33226-.88413c-1.38717-1.38717-1.128-3.97857.625-6.38705-1.66154-2.78958-1.85971-5.32-.48779-6.69192s3.82614-1.17375,6.58522.42681a101.62011,101.62011,0,0,1,11.85948-14.22224l.53354-.53352h0l.88413-.88413-9.87782-10.25892-2.78958,2.77433.10671.1067a3.14659,3.14659,0,0,1,0,4.43588,3.3155,3.3155,0,0,1-1.66154.86889,3.7504,3.7504,0,0,1-.60975,4.48161l-.07622.07622a3.74484,3.74484,0,0,1-4.4816.5945,3.04158,3.04158,0,0,1-.86888,1.66154,3.15,3.15,0,0,1-2.22556.91461,2.74509,2.74509,0,0,1-1.05181-.19816c-4.2682,11.31071-5.09134,23.597-2.439,36.554l2.57617-2.57616.39633,1.11278a9.2847,9.2847,0,0,1-1.95117,9.89307,8.922,8.922,0,0,1-6.38705,2.57616,10.5072,10.5072,0,0,1-3.506-.625l-1.11278-.39633,3.15541-3.15542c-16.76791-5.41147-24.283-4.23771-38.41377.36584l2.40849,2.40849-1.11279.39633a10.28406,10.28406,0,0,1-3.52125.625,8.91469,8.91469,0,0,1-6.37181-2.57616,9.33123,9.33123,0,0,1-1.95118-9.89307l.39634-1.11278,2.6981,2.6981c4.6188-14.146,5.77731-21.66109.38109-38.41377l-3.15541,3.15542-.39634-1.11279a9.05307,9.05307,0,0,1,11.84424-11.84424l1.11279.39634-2.57617,2.57616c12.957,2.65238,25.22809,1.82923,36.50832-2.42372a3.12076,3.12076,0,0,1,.686-3.35357,3.19414,3.19414,0,0,1,1.67679-.8384,3.75041,3.75041,0,0,1,.5945-4.5121,3.79631,3.79631,0,0,1,4.54258-.67072,3.09384,3.09384,0,0,1,.86889-1.66154,3.219,3.219,0,0,1,4.43588,0l.28963.28963,2.95725-2.95725Zm24.0391,112.45171,2.25605-2.256,5.2133-5.21329h0l1.61581-1.61582a8.399,8.399,0,0,0-1.82922-.19816,7.4257,7.4257,0,0,0-5.32,2.1341A7.69122,7.69122,0,0,0,126.7197,145.97672Zm9.16138,47.255-1.21949-1.21949h0l-.16768-.16768-7.698-7.698a7.437,7.437,0,0,0,9.06991,9.08516Zm47.52941-8.71932-9.08515,9.08516a7.44083,7.44083,0,0,0,9.08515-9.08516Zm-.76217-37.6211-9.25284-9.25283c-11.93571,4.58831-24.93846,5.41146-38.67291,2.42372l-4.35966,4.35965c5.884,17.89594,4.49684,25.95978-.38109,40.807l2.4847,2.4847.04573.03048,2.48469,2.4847.061.061c14.832-4.87793,22.89581-6.24985,40.807-.36584l4.35966-4.35966c-2.97249-13.7192-2.16458-26.722,2.42372-38.67291Zm3.628-3.10968-9.6949-9.71015a1.696,1.696,0,0,0-2.317,0,1.63956,1.63956,0,0,0-.09146,2.21031l.10671.1067h0l9.573,9.57295c.04573.04573.09146.07623.13719.122a1.669,1.669,0,0,0,2.17982-.122,1.63144,1.63144,0,0,0,.122-2.16458Zm5.28952-3.33835-11.768-11.768a2.23955,2.23955,0,0,0-1.58533-.65548,2.21394,2.21394,0,0,0-1.58534.65548,2.27939,2.27939,0,0,0-.07622,3.24687l11.768,11.768a2.2963,2.2963,0,0,0,3.24689-3.24688Zm2.16458-4.57306h0l-.21341-.21341-.32011-.30487h0l-8.93273-8.93272a1.696,1.696,0,0,0-2.317,0,1.64722,1.64722,0,0,0,0,2.30178l9.573,9.57295a1.696,1.696,0,0,0,2.317,0,1.64722,1.64722,0,0,0,0-2.30178l-.1067-.10671Zm2.80482-4.92368-6.92058-7.195-2.92676,2.942,7.04253,7.05776Zm16.18865,20.50258-6.15839-6.1584a99.09716,99.09716,0,0,0-11.55462,14.05457l-.41157.625-.625-.41157a7.94887,7.94887,0,0,0-3.99382-1.47863,1.87285,1.87285,0,0,0-1.35667.45731c-.86888.86888-.47255,3.03347.97559,5.259l.28963.45732-.33536.42681c-1.49388,1.85972-1.93593,3.93284-1.05181,4.817.86888.86888,2.98773.41157,4.817-1.067l.42681-.33536.45732.28963c2.2408,1.4329,4.40538,1.84447,5.259.97559.86889-.88413.45731-3.0792-1.02132-5.33525l-.41158-.625.625-.41157a97.97422,97.97422,0,0,0,14.05456-11.55462Zm8.64309,5.18281,14.64906-14.649c-.8384-.80791-1.692-1.60058-2.53043-2.378L218.989,154.10153c.80791.86888,1.60058,1.70728,2.39325,2.53044Zm7.10351,6.96631,14.51187-14.51186c-.79267-.85364-1.60058-1.70728-2.39325-2.53044L225.94,161.205C226.76315,161.99768,227.60155,162.8056,228.47045,163.59826Zm21.05135-6.98155c-.747-.92986-1.49387-1.814-2.24081-2.68287l-13.9631,13.9631c.8384.71645,1.73776,1.46338,2.68285,2.24081l13.521-13.53628Zm-3.2164-3.82614c-.74694-.86888-1.50912-1.73776-2.317-2.60665L229.568,164.60433c.92986.8384,1.78349,1.61581,2.60666,2.317Zm10.39612,18.70385a5.8895,5.8895,0,0,1,.686-.25913c.03049-.01525.122-.04573.21341-.07623.25913-.07622.53353-.15243.79267-.22865.27437-.061.53353-.12195.82314-.16768-.19817-.38109-.41158-.77743-.64023-1.15852l-1.89021,1.8902Zm-5.80779,5.823-1.875,1.875c.38109.21341.77741.44207,1.1585.64023.01524-.12195.04573-.22865.061-.33536h0c.061-.32011.13719-.65547.22865-.99083a9.08263,9.08263,0,0,1,.42682-1.17375Zm22.27084,12.393a3.19474,3.19474,0,0,0-.91462-2.256c-.09146.21341-.19818.41157-.30487.60974,0,.03048-.03049.04573-.03049.07623h0v.01524c-.07623.16768-.19818.35061-.30487.53352h0a2.485,2.485,0,0,1-.16768.25914l-.09146.15244s-.03049.04572-.04573.07622a13.48253,13.48253,0,0,1-1.23472,1.47862h0c-.18292.18293-.3506.33536-.53354.4878h0l-.03049.03048c-.10672.09146-.19817.16768-.28963.2439h0c-.19817.15244-.38109.30487-.57926.44207H268.622a5.30026,5.30026,0,0,1-.60973.39633s-.0305.01525-.0305.03048a3.30712,3.30712,0,0,0,4.26821-.27438,3.23953,3.23953,0,0,0,.94509-2.30178Zm-12.69789-17.56058H260.36a11.79182,11.79182,0,0,0-1.60058.2439c-.22865.061-.47255.12195-.70122.19816a.46032.46032,0,0,0-.13718.04573.0792.0792,0,0,0-.061.03048h0c-.22864.07622-.442.16768-.67072.25914l-.07622.03048a6.26643,6.26643,0,0,0-.64023.32011l-.10671.04573a1.58382,1.58382,0,0,0-.15245.09146c-.01523,0-.03049.01525-.061.03048a4.88717,4.88717,0,0,0-.47255.28963.04724.04724,0,0,0-.03049.01525,6.35292,6.35292,0,0,0-.60973.45731l-.061.04573h0a2.24388,2.24388,0,0,0-.18291.15243c-.16768.15244-.3506.32012-.51828.4878-.13718.13718-.25914.27438-.38109.41157a.21049.21049,0,0,0-.04573.061h0a2.05044,2.05044,0,0,0-.19817.22866,9.30705,9.30705,0,0,0-1.14327,1.78349,13.11413,13.11413,0,0,0-.60973,1.55484,8.27646,8.27646,0,0,0-.19817.88413h0a9.2851,9.2851,0,0,0-.15245,1.26522v.15243a10.5979,10.5979,0,0,0,3.14017,7.95714,10.36821,10.36821,0,0,0,11.43267,2.36276l.27437-.13719c.22865-.10671.45731-.22866.70122-.36584a3.40631,3.40631,0,0,0,.45731-.30487c.061-.04573.13718-.07622.19817-.12195h0a6.222,6.222,0,0,0,.503-.38109,2.65112,2.65112,0,0,0,.21341-.18293c.01523,0,.03049-.03048.04573-.04573a6.05743,6.05743,0,0,0,.45731-.42681,10.8719,10.8719,0,0,0,1.067-1.26522l.25914-.39634a5.30483,5.30483,0,0,0,.27437-.47254v-.01525h0a8.45052,8.45052,0,0,0,.60974-1.41765l.04573-.15243A10.51009,10.51009,0,0,0,268.561,175.29a10.66071,10.66071,0,0,0-8.10958-3.15541Zm-4.08526-6.17365-11.00585,11.0211c.76218.48779,1.52436.97558,2.28653,1.43289l10.15222-10.1522C257.3875,167.56158,256.91495,166.78416,256.38142,165.97624Zm-2.8658-4.17673-12.31679,12.3168c.97558.7012,1.95117,1.38716,2.91152,2.02739l11.4479-11.44791c-.625-.92986-1.29571-1.8902-2.02739-2.89628Zm-3.04871-4.00905-13.27715,13.29238c.91463.7317,1.84448,1.4329,2.77434,2.1341l12.65216-12.65216q-1.07468-1.44051-2.14935-2.78957Zm-12.0424-13.46007c-.442-.44206-.88413-.88413-1.34144-1.32619l-14.67955,14.67954c.44205.44207.86889.89936,1.32618,1.34143.38109.38109.76218.74693,1.14327,1.11278l14.67955-14.67954c-.36585-.38109-.74694-.76218-1.128-1.14326Zm-8.52114-7.94189-14.13079,14.13077c.65547.76218,1.40241,1.60058,2.17982,2.46946l14.40516-14.40515c-.76218-.70121-1.58532-1.41765-2.45422-2.17983Zm-5.15233-9.32906,6.15839,6.1584a98.28708,98.28708,0,0,0,11.53938-14.05456l.41158-.625.625.41158c2.2713,1.47862,4.46635,1.89019,5.33525,1.02131s.47254-3.03346-.97559-5.259l-.28963-.45731.33536-.42682c1.49386-1.85972,1.95117-3.93284,1.067-4.817-.86889-.86888-2.98774-.41157-4.817,1.067l-.42682.33536-.45731-.28963c-2.2713-1.46338-4.39016-1.84447-5.259-.97558-.86889.88413-.45731,3.07919,1.02132,5.35049l.41158.625-.625.41157A97.90732,97.90732,0,0,0,224.751,127.07466Zm-1.067,1.05181-16.082,16.082,6.17364,6.18888,16.082-16.082-6.17365-6.17365Zm13.12471-98.763L259.32344,51.863l5.36574-5.36573h0l12.85033-12.85032-4.83221-4.83221L259.32346,42.19856,252.3724,35.2475l13.38384-13.38385L255.04,11.13219l-4.83221,4.83221,5.89925,5.89925-8.56687,8.55164-5.884-5.884-4.8322,4.83221Zm-5.59439,40.95944,4.83221,4.83221,12.85033-12.85032h0l5.36574-5.36574L231.74785,34.4091l-4.83221,4.83221,5.884,5.884L224.248,53.6922,218.34877,47.793l-4.8322,4.83221L224.248,63.34138l13.38384-13.38385,6.95106,6.95107L231.19908,70.29244Zm-28.0024,39.77044,7.195,6.93582,84.90661-84.90662a4.996,4.996,0,0,0-7.073-7.05776l-8.90224,8.90224h0L265.741,47.56429h0l-.47254.47255L258.56126,54.744l-2.71335,2.71335h0L251.534,61.77129l-1.57008,1.58533h0L236.36664,76.95387h0l-33.1395,33.13949ZM103.74765,32.4732l104.7842,108.73231,5.59438-5.59439c-19.93858-19.67944-46.78248-46.49285-66.3857-66.26374-7.42361-7.43886-14.84722-14.87772-21.783-22.77388l.12195-.12194c21.50866,19.588,46.55382,45.7764,67.39177,66.30947,0,0,18.338,18.50568,21.6611,21.85927l5.59438-5.59438L111.96392,24.25692a50.80129,50.80129,0,0,0-11.6918-9.00894c-3.26212-1.70728-5.79255-2.16458-6.7529-1.20424-1.93593,1.93593,1.7835,9.98453,10.21318,18.42946Zm112.4517,104.34215h0c3.003-3.003,6.87484-5.18281,8.49068-3.567s-.57926,5.48767-3.567,8.49066c-2.49994,2.49994-5.24379,4.11575-6.99679,4.11575h0a2.06521,2.06521,0,0,1-1.47862-.54877c-1.61582-1.61581.57926-5.48767,3.567-8.49066Zm-2.49994,7.42362a.54611.54611,0,0,0,.41159.1067c1.09753,0,3.41456-1.15851,5.945-3.68893,3.07921-3.0792,4.07-5.884,3.567-6.37181-.47255-.47255-3.15543.35061-6.3718,3.567-3.20115,3.21639-4.03953,5.89926-3.567,6.3718ZM291.655,169.04023a16.94322,16.94322,0,1,1,16.95083,16.9356A16.97317,16.97317,0,0,1,291.655,169.04023Zm1.49387,0a15.44174,15.44174,0,1,0,15.44173-15.457A15.47039,15.47039,0,0,0,293.14883,169.04023Z"/></svg>